<?xml version="1.0" encoding="UTF-8" standalone="no"?>
<!-- Created with Inkscape (http://www.inkscape.org/) -->

<svg
   xmlns:dc="http://purl.org/dc/elements/1.1/"
   xmlns:cc="http://creativecommons.org/ns#"
   xmlns:rdf="http://www.w3.org/1999/02/22-rdf-syntax-ns#"
   xmlns:svg="http://www.w3.org/2000/svg"
   xmlns="http://www.w3.org/2000/svg"
   xmlns:sodipodi="http://sodipodi.sourceforge.net/DTD/sodipodi-0.dtd"
   xmlns:inkscape="http://www.inkscape.org/namespaces/inkscape"
   width="744.09448819"
   height="1052.3622047"
   id="svg2"
   version="1.1"
   inkscape:version="0.48.4 r9939"
   sodipodi:docname="New document 1">
  <defs
     id="defs4" />
  <sodipodi:namedview
     id="base"
     pagecolor="#ffffff"
     bordercolor="#666666"
     borderopacity="1.0"
     inkscape:pageopacity="0.0"
     inkscape:pageshadow="2"
     inkscape:zoom="0.35"
     inkscape:cx="375"
     inkscape:cy="634.28571"
     inkscape:document-units="px"
     inkscape:current-layer="layer1"
     showgrid="false"
     inkscape:window-width="1674"
     inkscape:window-height="923"
     inkscape:window-x="65"
     inkscape:window-y="24"
     inkscape:window-maximized="0" />
  <metadata
     id="metadata7">
    <rdf:RDF>
      <cc:Work
         rdf:about="">
        <dc:format>image/svg+xml</dc:format>
        <dc:type
           rdf:resource="http://purl.org/dc/dcmitype/StillImage" />
        <dc:title></dc:title>
      </cc:Work>
    </rdf:RDF>
  </metadata>
  <g
     inkscape:label="Layer 1"
     inkscape:groupmode="layer"
     id="layer1">
    <path
       style="fill:none;stroke:#000000;stroke-width:1px;stroke-linecap:butt;stroke-linejoin:miter;stroke-opacity:1"
       d="m 117.14286,58.076468 c -8.16885,5.195022 -9.82865,-6.342894 -14.28572,-8.571428 -1.03324,-0.51662 -12.298454,0 -14.285711,0 -0.952381,0 -2.183708,0.673435 -2.857143,0 -0.673435,-0.673435 0.851835,-2.431225 0,-2.857143 -1.703671,-0.851836 -3.809524,0 -5.714286,0 -5.714286,0 -11.428571,0 -17.142857,0 -1.049248,0 -11.313596,-0.114975 -11.428572,0 -0.673435,0.673435 0.673435,2.183708 0,2.857143 -0.673435,0.673435 -2.183707,-0.673435 -2.857142,0 -0.673435,0.673435 0.673435,2.183708 0,2.857143 -0.673435,0.673435 -2.183708,-0.673435 -2.857143,0 -0.673435,0.673435 0.673435,2.183707 0,2.857142 -0.673435,0.673436 -2.183708,-0.673435 -2.857143,0 -1.34687,1.346871 1.34687,4.367416 0,5.714286 -0.673435,0.673435 -1.904762,0 -2.857143,0 0,0.952381 0.425918,2.005308 0,2.857143 -0.602339,1.204677 -2.254804,1.652466 -2.857143,2.857143 -0.369358,0.738716 0,15.117708 0,17.142857 0,0.952381 -0.673435,2.183708 0,2.857143 0.673435,0.673435 2.183708,-0.673435 2.857143,0 0.673435,0.673435 -0.673435,2.183708 0,2.857143 0.673435,0.673435 1.904762,0 2.857143,0 0.952381,0 1.904762,0 2.857143,0 4.761904,0 9.523809,0 14.285714,0 0.952381,0 1.904762,0 2.857143,0 0.952381,0 2.005307,-0.425918 2.857143,0 1.204677,0.602338 1.652465,2.254804 2.857143,2.857143 0.869525,0.434762 7.284692,0 8.571428,0 0.952381,0 1.904762,0 2.857143,0 0.952381,0 2.431225,-0.851836 2.857143,0 0.851835,1.70367 -0.851836,4.010614 0,5.714285 0.186741,0.373482 10.231144,-0.598713 11.428571,0 1.204677,0.602339 1.652466,2.254802 2.857143,2.857142 1.640433,0.82022 14.842383,-0.76682 17.142853,0 1.27776,0.42592 1.65247,2.25481 2.85715,2.85714 1.13283,0.56642 7.98732,-0.5841 8.57143,0 0.67343,0.67344 -0.85184,2.43123 0,2.85715 3.40734,1.70367 8.02123,-1.70367 11.42857,0 1.70367,0.85183 -1.34687,4.36741 0,5.71428 0.67343,0.67344 2.1837,-0.67343 2.85714,0 0.11498,0.11498 0,10.37933 0,11.42857 0,0.95238 0.67344,2.18371 0,2.85715 -0.67344,0.67343 -2.18371,-0.67344 -2.85714,0 -0.67344,0.67343 0.67343,2.1837 0,2.85714 -0.67344,0.67343 -2.18371,-0.67344 -2.85715,0 -0.67343,0.67343 0.67344,2.18371 0,2.85714 -7.61904,0 0.95239,-0.95238 -2.85714,2.85715 -0.67343,0.67343 -2.00531,-0.42592 -2.85714,0 -1.20468,0.60233 -1.65247,2.2548 -2.85714,2.85714 -0.85184,0.42592 -2.18371,-0.67344 -2.85715,0 -0.67343,0.67343 0.67344,2.18371 0,2.85714 -0.67343,0.67344 -2.0053,-0.42592 -2.85714,0 -9.47595,9.47595 2.69374,-1.34687 -5.71429,2.85714 -1.20467,0.60234 -1.65246,2.25481 -2.85714,2.85715 -2.28571,1.14285 -6.28571,-1.14286 -8.57143,0 -1.20467,0.60234 -1.65246,2.2548 -2.85714,2.85714 -0.869526,0.43476 -7.284692,0 -8.571429,0 -0.952381,0 -2.183707,0.67343 -2.857142,0 -0.673435,-0.67344 0.673435,-2.18371 0,-2.85714 -0.673435,-0.67344 -2.183708,0.67343 -2.857143,0 -0.673435,-0.67344 0.673435,-2.18371 0,-2.85715 -1.428572,-1.42857 -7.142857,1.42858 -8.571429,0 -0.673435,-0.67343 0.673435,-2.1837 0,-2.85714 -1.34687,-1.34687 -4.367416,1.34687 -5.714286,0 -1.34687,-1.34687 1.34687,-4.36741 0,-5.71428 -1.34687,-1.34687 -4.367415,1.34687 -5.714285,0 -0.673435,-0.67344 0.673435,-2.18371 0,-2.85715 -0.673435,-0.67343 -2.183708,0.67344 -2.857143,0 -0.673435,-0.67343 0.673435,-2.18371 0,-2.85714 -0.420168,-0.42017 -8.571429,0.33613 -8.571429,0 0,-0.95238 1.904762,0 2.857143,0 1.904762,0 3.809524,0 5.714286,0 1.347137,0 14.156223,-0.12949 14.285714,0 0.673435,0.67343 -0.673435,2.18371 0,2.85714 0.673435,0.67344 1.904762,0 2.857143,0 5.714286,0 11.428571,0 17.142857,0 0.952381,0 1.904762,0 2.857143,0 0.95238,0 2.18371,-0.67343 2.85714,0 0.67344,0.67344 -0.67343,2.18371 0,2.85715 0.67344,0.67343 1.90476,0 2.85715,0 0.95238,0 1.90476,0 2.85714,0 10.47619,0 20.95238,0 31.42857,0 1.04925,0 11.3136,0.11497 11.42857,0 0.67344,-0.67344 0,-1.90477 0,-2.85715 0.95238,0 2.18371,0.67344 2.85714,0 0.67344,-0.67343 -0.67343,-2.18371 0,-2.85714 0.67344,-0.67344 2.18371,0.67343 2.85715,0 0.67343,-0.67344 -0.67344,-2.18371 0,-2.85714 0.67343,-0.67344 2.1837,0.67343 2.85714,0 0.67344,-0.67344 -0.67344,-2.18371 0,-2.85715 0.67344,-0.67343 2.18371,0.67344 2.85714,0 1.34687,-1.34687 -1.34687,-4.36741 0,-5.71428 0.67344,-0.67344 2.18371,0.67343 2.85715,0 1.90099,-1.90099 -1.90099,-3.8133 0,-5.71429 0.67343,-0.67343 2.1837,0.67344 2.85714,0 1.42857,-1.42857 -1.42857,-7.14285 0,-8.57143 0.67343,-0.67343 2.18371,0.67344 2.85714,0 1.34687,-1.34687 -1.90476,-5.714282 0,-5.714282 0.6495,0 -0.68406,10.744512 0,11.428572 0.67344,0.67343 2.18371,-0.67344 2.85714,0 1.90099,1.90099 -1.90099,3.8133 0,5.71429 0.67344,0.67343 2.18371,-0.67344 2.85715,0 1.94093,1.94093 -2.92138,5.68217 2.85714,8.57142 0.58608,0.29304 8.1685,0.40293 8.57143,0 0.67343,-0.67343 -0.67344,-2.1837 0,-2.85714 0.67343,-0.67343 2.18371,0.67344 2.85714,0 0.67344,-0.67343 -0.67343,-2.18371 0,-2.85714 0.67344,-0.67344 2.18371,0.67343 2.85714,0 1.90099,-1.90099 -1.90099,-3.8133 0,-5.71429 0.67344,-0.67343 2.18371,0.67344 2.85715,0 0.67343,-0.67343 -0.67344,-2.18371 0,-2.85714 0.67343,-0.67344 2.1837,0.67343 2.85714,0 0.67344,-0.67344 -0.67344,-2.18371 0,-2.85714 0.67344,-0.67344 2.18371,0.67343 2.85714,0 0.67344,-0.67344 -0.67343,-2.18371 0,-2.85715 0.67344,-0.67343 2.18371,0.67344 2.85715,0 0.67343,-0.67343 -0.67344,-2.1837 0,-2.85714 0.0919,-0.0919 7.87849,0 8.57142,0 3.48766,0 6.58852,-1.108688 8.57143,2.85714 0.42592,0.85184 -0.67343,2.18371 0,2.85715 0.67344,0.67343 2.18371,-0.67344 2.85715,0 0.67343,0.67343 0,1.90476 0,2.85714 0,0.95238 0,1.90476 0,2.85714 0,1.90476 0,3.80953 0,5.71429 0,0.95238 0.95238,2.85714 0,2.85714 -0.95239,0 0,-1.90476 0,-2.85714 0,-2.85714 0,-5.71429 0,-8.57143 0,-0.69293 -0.0919,-8.47954 0,-8.57143 0.67343,-0.67343 2.1837,0.67344 2.85714,0 0.67343,-0.67343 -0.67344,-2.183707 0,-2.857142 0.11497,-0.114975 10.37932,0 11.42857,0 0.95238,0 1.90476,0 2.85714,0 0.95238,0 2.18371,-0.673435 2.85715,0 0.67343,0.673435 -0.67344,2.183712 0,2.857142 0.67343,0.67344 2.1837,-0.67343 2.85714,0 0.0919,0.0919 0,7.8785 0,8.57143 0,0.95238 0,1.90476 0,2.85714 0,0.95238 0.67343,2.18371 0,2.85715 -0.67344,0.67343 -1.90476,0 -2.85714,0 -0.95239,0 -2.18371,0.67343 -2.85715,0 -0.67343,-0.67344 0,-1.90477 0,-2.85715 0,-1.34713 -0.12949,-14.156221 0,-14.285712 0.67344,-0.673435 2.18371,0.673435 2.85715,0 0.67343,-0.673435 -0.67344,-2.183707 0,-2.857143 1.34687,-1.34687 4.36741,1.346871 5.71428,0 0.67344,-0.673435 -0.67343,-2.183707 0,-2.857142 1.97051,-1.97051 5.34236,2.113287 5.71429,2.857142 0,7.619045 -0.95238,-0.95238 2.85714,2.857143 0.67344,0.673435 -0.67344,2.183712 0,2.857142 0.67344,0.67344 2.18371,-0.67343 2.85714,0 0.67344,0.67344 -0.67343,2.18371 0,2.85714 0.67344,0.67344 2.18371,-0.67343 2.85715,0 0.67343,0.67344 -0.67344,2.18371 0,2.85715 0.67343,0.67343 2.1837,-0.67344 2.85714,0 0.67343,0.67343 -0.67344,2.1837 0,2.85714 1.34687,1.34687 4.36741,-1.34687 5.71428,0 0.67344,0.67343 -0.67343,2.18371 0,2.85714 0.67344,0.67344 1.90477,0 2.85715,0 1.34713,0 14.15622,-0.12949 14.28571,0 0.67344,0.67344 -0.67343,2.18371 0,2.85715 0.11498,0.11497 10.37933,0 11.42857,0 0.95238,0 2.18371,0.67343 2.85715,0 0.67343,-0.67344 -0.67344,-2.18371 0,-2.85715 0.67343,-0.67343 2.1837,0.67344 2.85714,0 0.67343,-0.67343 -0.67344,-2.18371 0,-2.85714 0.67343,-0.67344 1.90476,0 2.85714,0 0,-0.95238 -0.67343,-2.18371 0,-2.85714 0.67344,-0.67344 2.18371,0.67343 2.85714,0 1.90099,-1.90099 -1.90099,-3.8133 0,-5.71429 0.67344,-0.67343 2.18371,0.67344 2.85715,0 1.42857,-1.42857 -1.42857,-7.142856 0,-8.571427 4.19047,-4.190477 2.57143,5.428571 2.85714,5.714285 0.67344,0.673435 2.18371,-0.673435 2.85714,0 0.78178,0.781778 -0.77498,9.878612 0,11.428572 0.60234,1.20468 2.25481,1.65247 2.85715,2.85714 0.98676,1.97353 -1.00292,13.2828 0,14.28572 0.67343,0.67343 2.1837,-0.67344 2.85714,0 0.12949,0.12949 0,12.93857 0,14.28571 0,3.80952 0,7.61905 0,11.42857 0,0.95238 0.95238,2.85715 0,2.85715 -0.95238,0 0,-1.90477 0,-2.85715 0,-1.90476 0,-3.80952 0,-5.71428 0,-2.02515 -0.36936,-16.40414 0,-17.14286 0.60234,-1.20468 2.2548,-1.65247 2.85714,-2.85714 0.36936,-0.73872 0,-15.11771 0,-17.14286 0,-0.95238 0,-1.90476 0,-2.85714 0,-0.95238 -0.67343,-2.18371 0,-2.85715 0.67344,-0.67343 2.18371,0.67344 2.85714,0 5.91153,-5.911526 -9.0336,0.23109 2.85715,-5.714282 1.70367,-0.851835 4.36741,1.34687 5.71428,0 0.67344,-0.673435 -0.67343,-2.183707 0,-2.857143 2.23351,-2.233502 4.97043,2.485215 5.71429,2.857143 0.85183,0.425918 2.18371,-0.673435 2.85714,0 0.67344,0.673435 -0.42592,2.005312 0,2.857142 0.60234,1.20468 2.25481,1.65247 2.85714,2.85714 0.42592,0.85184 -0.67343,2.18371 0,2.85715 0.67344,0.67343 2.18371,-0.67344 2.85715,0 0.67343,0.67343 -0.67344,2.1837 0,2.85714 0.67343,0.67343 2.1837,-0.67344 2.85714,0 0.67344,0.67343 -0.67344,2.18371 0,2.85714 0.67344,0.67344 2.18371,-0.67343 2.85714,0 0.67344,0.67344 -0.67343,2.18371 0,2.85715 0.67344,0.67343 1.90476,0 2.85715,0 0.95238,0 1.90476,0 2.85714,0 1.34714,0 14.15622,0.12949 14.28571,0 0.67344,-0.67344 -0.67343,-2.18371 0,-2.85715 1.34687,-1.34687 4.36742,1.34687 5.71429,0 0.67343,-0.67343 -0.67344,-2.18371 0,-2.85714 1.34687,-1.34687 4.36741,1.34687 5.71428,0 0.67344,-0.67344 -0.85183,-2.43123 0,-2.85714 3.40735,-1.70367 8.02123,1.70367 11.42858,0 0.85183,-0.42592 -0.67344,-2.18371 0,-2.85715 0.67343,-0.67343 2.1837,0.67344 2.85714,0 0.67343,-0.67343 -0.67344,-2.1837 0,-2.85714 0.67343,-0.67343 2.18371,0.67344 2.85714,0 1.34687,-1.346869 -1.34687,-4.367414 0,-5.714285 0.67344,-0.673435 2.18371,0.673436 2.85714,0 0.67344,-0.673435 -0.67343,-2.183707 0,-2.857142 0.67344,-0.673435 2.18371,0.673435 2.85715,0 1.34687,-1.34687 -1.34687,-4.367416 0,-5.714286 0.67343,-0.673435 2.1837,0.673435 2.85714,0 0.67344,-0.673435 0,-1.904762 0,-2.857143 0,-0.952381 0,-1.904762 0,-2.857143 0,-6.700508 -0.67344,1.34687 2.85714,-5.714286 0.51662,-1.033238 0,-12.298457 0,-14.285714 0,-0.952381 0,-1.904762 0,-2.857143 0,-0.952381 0.67344,-2.183707 0,-2.857143 -0.67343,-0.673435 -2.1837,0.673436 -2.85714,0 -1.34687,-1.34687 1.34687,-4.367415 0,-5.714285 -0.67344,-0.673435 -2.18371,0.673435 -2.85714,0 -0.67344,-0.673435 0,-1.904762 0,-2.857143 0,-1.904762 0.85183,-4.010615 0,-5.714286 -0.42592,-0.851835 -2.18371,0.673435 -2.85715,0 -0.67343,-0.673435 0.67344,-2.183708 0,-2.857143 -0.67343,-0.673435 -2.1837,0.673435 -2.85714,0 -0.67343,-0.673435 0.67344,-2.183707 0,-2.857143 -0.17735,-8.044965 -6.44184,-0.727554 -8.57143,-2.857142 -0.67343,-0.673435 0.67344,-2.183708 0,-2.857143 -0.67343,-0.673435 -2.1837,0.673435 -2.85714,0 -0.67344,-0.673435 0.67344,-2.183708 0,-2.857143 -0.67344,-0.673435 -1.90476,0 -2.85714,0 -1.04925,0 -11.3136,-0.114975 -11.42857,0 -0.67344,0.673435 0.67343,2.183708 0,2.857143 -0.67344,0.673435 -2.18371,-0.673435 -2.85715,0 -1.34687,1.34687 1.34687,4.367415 0,5.714285 -0.67343,0.673436 -2.1837,-0.673435 -2.85714,0 -1.42857,1.428572 1.42857,7.142858 0,8.571429 -0.67344,0.673435 -2.18371,-0.673435 -2.85714,0 -0.67344,0.673435 0,1.904762 0,2.857143 0,7.619048 0,15.238095 0,22.857143 0,1.049247 -0.11498,11.313596 0,11.428571 0.67343,0.673435 2.1837,-0.673435 2.85714,0 0.67344,0.673435 0,1.904762 0,2.857143 0,1.904762 -0.85184,4.010615 0,5.714286 0.42592,0.851835 2.18371,-0.673435 2.85714,0 1.34687,1.34687 -1.70367,4.86245 0,5.714285 16.19048,0 0.95238,-1.904761 5.71429,2.857143 0.67343,0.673435 2.18371,-0.673435 2.85714,0 1.90099,1.90099 -1.90099,3.813292 0,5.714282 0.67344,0.67344 2.18371,-0.67343 2.85714,0 5.91153,5.91153 -9.0336,-0.23108 2.85715,5.71429 7.61904,0 -0.95238,-0.95238 2.85714,2.85714 0.67344,0.67344 2.18371,-0.67343 2.85714,0 0.67344,0.67344 -0.67343,2.18371 0,2.85715 0.67344,0.67343 2.18371,-0.67344 2.85715,0 0.67343,0.67343 -0.67344,2.1837 0,2.85714 1.34687,1.34687 4.36741,-1.34687 5.71428,0 0.67344,0.67343 -0.67343,2.18371 0,2.85714 0.67344,0.67344 1.90476,0 2.85714,0 4.76191,0 9.52381,0 14.28572,0 0.69293,0 8.47954,0.0919 8.57143,0 0.67343,-0.67343 -0.67344,-2.18371 0,-2.85714 0.67343,-0.67344 1.90476,0 2.85714,0 1.90476,0 4.01061,0.85183 5.71429,0 0.85183,-0.42592 -0.67344,-2.18371 0,-2.85714 0.67343,-0.67344 2.1837,0.67343 2.85714,0 0.67343,-0.67344 -0.67344,-2.18371 0,-2.85715 0.67343,-0.67343 1.90476,0 2.85714,0 0,-0.95238 -0.67343,-2.18371 0,-2.85714 0.67344,-0.67344 2.18371,0.67343 2.85714,0 0.67344,-0.67344 -0.67343,-2.18371 0,-2.85714 0.67344,-0.67344 2.18371,0.67343 2.85715,0 0.67343,-0.67344 -0.67344,-2.18371 0,-2.85715 0.67343,-0.67343 2.43122,0.85184 2.85714,0 0.85184,-1.70367 0,-3.80952 0,-5.714282 0,-0.952381 -0.67344,-2.183707 0,-2.857143 0.67344,-0.673435 2.18371,0.673436 2.85714,0 0.67344,-0.673435 0,-1.904761 0,-2.857142 0,-1.049248 0.11498,-11.313597 0,-11.428572 -0.67343,-0.673435 -2.1837,0.673435 -2.85714,0 -0.67344,-0.673435 0.67344,-2.183708 0,-2.857143 -0.67344,-0.673435 -2.18371,0.673435 -2.85714,0 -0.67344,-0.673435 0.67343,-2.183707 0,-2.857143 -0.11498,-0.114975 -10.37933,0 -11.42857,0 -0.95239,0 -2.18371,-0.673435 -2.85715,0 -0.67343,0.673436 0.67344,2.183708 0,2.857143 -1.34687,1.34687 -4.36741,-1.34687 -5.71428,0 -0.67344,0.673435 0.67343,2.183708 0,2.857143 -0.67344,0.673435 -2.18371,-0.673435 -2.85715,0 -0.67343,0.673435 0,1.904762 0,2.857143 0,1.494059 -0.37563,10.67731 0,11.428571 1.20468,2.409355 4.50961,3.304932 5.71429,5.714285 0,7.61905 -0.95238,-0.95238 2.85714,2.85714 0.67344,0.67344 -0.67343,2.18371 0,2.85715 0.67344,0.67343 2.18371,-0.67344 2.85715,0 0.67343,0.67343 -0.67344,2.1837 0,2.85714 0.67343,0.67343 2.1837,-0.67344 2.85714,0 0.67343,0.67343 -0.67344,2.18371 0,2.85714 0.67343,0.67344 2.18371,-0.67343 2.85714,0 0.67344,0.67344 -0.67343,2.18371 0,2.85715 0.67344,0.67343 2.00531,-0.42592 2.85714,0 1.20468,0.60233 1.65247,2.2548 2.85715,2.85714 1.13283,0.56642 7.98732,-0.58411 8.57143,0 0.67343,0.67343 -0.67344,2.18371 0,2.85714 0.11497,0.11498 10.37932,0 11.42857,0"
       id="path2989"
       inkscape:connector-curvature="0" />
    <path
       style="fill:none;stroke:#000000;stroke-width:1.5249989px;stroke-linecap:butt;stroke-linejoin:miter;stroke-opacity:1"
       d="m 119.86837,280.82756 c -13.94574,0 -27.891472,0 -41.837204,0 -0.845552,0 -10.347175,-0.17515 -10.459297,0 -0.821761,1.28346 0.82176,4.16181 0,5.44529 -1.743218,2.72265 -8.716082,-2.72265 -10.459299,0 -0.82176,1.28346 0.82176,4.16183 0,5.44529 -0.82176,1.28348 -2.446979,-0.81174 -3.486433,0 -1.470009,1.14798 -2.016423,4.29734 -3.486432,5.44532 -1.039454,0.81172 -2.664673,-1.28348 -3.486433,0 -1.743217,2.72264 1.743216,13.61323 0,16.33587 -0.82176,1.28348 -2.664673,-1.28345 -3.486433,0 -0.348643,0.54455 -0.348643,15.79138 0,16.3359 0.82176,1.28348 2.664673,-1.28346 3.486433,0 1.64352,2.56694 -1.64352,8.32367 0,10.89061 1.64352,2.56694 5.329345,-2.56694 6.972865,0 0.82176,1.28346 -0.82176,4.16183 0,5.44529 0.82176,1.28348 2.324288,0 3.486433,0 5.810721,0 11.621443,0 17.432164,0 0.845553,0 10.347175,-0.17515 10.459298,0 0.82176,1.28348 -0.82176,4.16184 0,5.4453 1.743217,2.72266 8.716082,-2.72265 10.459299,0 0.82176,1.28347 -0.82176,4.16183 0,5.44531 1.64352,2.56694 5.329349,-2.56694 6.972869,0 0.82176,1.28346 -1.03946,4.63355 0,5.44529 2.0789,1.62348 4.64857,0 6.97286,0 1.16215,0 2.66467,-1.28348 3.48643,0 0.82177,1.28346 -0.82176,4.16184 0,5.44529 0.82177,1.28348 2.66468,-1.28345 3.48643,0 0.82177,1.28348 -0.82175,4.16184 0,5.44532 0.82177,1.28346 2.66468,-1.28348 3.48645,0 0.82175,1.28346 -0.82177,4.16181 0,5.44529 0.82175,1.28346 2.66466,-1.28348 3.48642,0 0.1403,0.21912 0,19.78147 0,21.78119 0,2.84746 0.45837,20.3494 0,21.78119 -0.735,2.29595 -2.75143,3.14937 -3.48642,5.4453 -0.51973,1.62348 1.03944,4.63357 0,5.44531 -2.07892,1.62346 -4.89397,-1.62348 -6.97288,0 -2.94001,2.29593 -4.23788,8.04282 -6.97286,10.89059 -0.96696,1.00684 -2.96671,-1.62347 -3.48643,0 -1.03946,3.24694 1.03945,7.64365 0,10.8906 -1.03946,3.24695 -5.329349,-2.56694 -6.972869,0 -0.82176,1.28346 0.82176,4.16184 0,5.4453 -0.112129,0.17514 -9.613745,0 -10.459299,0 -2.47119,0 -20.017177,0.70394 -20.918596,0 -1.470009,-1.14798 -2.016424,-4.29733 -3.486433,-5.4453 -1.039453,-0.81174 -2.664673,1.28346 -3.486433,0 -0.82176,-1.28348 0.519727,-3.82183 0,-5.44529 -1.470009,-4.59189 -5.502856,-6.29874 -6.972865,-10.89061 -0.519727,-1.62348 0,-3.63019 0,-5.44529 0,-1.8151 -0.82176,-4.16183 0,-5.44531 0.82176,-1.28346 2.324287,0 3.486432,0 6.972866,0 13.945732,0 20.918597,0 1.162145,0 2.664672,-1.28346 3.486432,0 0.82176,1.28348 -0.82176,4.16183 0,5.44531 0.82176,1.28346 2.324289,0 3.486433,0 8.13501,0 16.27002,0 24.405031,0 9.29715,0 18.59431,0 27.89146,0 1.16215,0 2.32429,0 3.48643,0 1.16215,0 2.66468,1.28346 3.48643,0 0.82177,-1.28348 -0.82175,-4.16183 0,-5.44531 0.83895,-1.3103 13.1068,1.31031 13.94573,0 0.82177,-1.28346 -0.82175,-4.16182 0,-5.4453 1.64352,-2.56693 4.89397,1.62349 6.97287,0 1.47002,-1.14797 2.01643,-4.29732 3.48643,-5.44529 1.03946,-0.81174 2.66468,1.28346 3.48644,0 0.82176,-1.28348 -0.82176,-4.16183 0,-5.44529 1.64352,-2.56694 5.32934,2.56694 6.97286,0 0.82177,-1.28348 -0.51973,-3.82183 0,-5.44531 0.73501,-2.29593 2.75144,-3.14935 3.48643,-5.4453 0.69118,-2.15901 -0.71275,-15.22267 0,-16.3359 0.82177,-1.28346 2.66468,1.28348 3.48644,0 0.82176,-1.28346 -0.82176,-4.16183 0,-5.44529 0.82176,-1.28348 2.66467,1.28346 3.48643,0 1.64352,-2.56694 -1.64352,-8.32367 0,-10.89061 0.82177,-1.28345 3.48643,-1.81509 3.48643,0 0,3.6302 -5.32934,-2.56693 -6.97286,0 -0.82176,1.28348 0.82176,4.16184 0,5.44532 -1.64352,2.56694 -5.32935,-2.56694 -6.97287,0 -0.82175,1.28346 0.82177,4.16181 0,5.44529 -0.82175,1.28346 -2.66467,-1.28348 -3.48643,0 -0.82176,1.28346 0.82176,4.16183 0,5.44529 -0.82176,1.28348 -2.66467,-1.28346 -3.48643,0 -0.82176,1.28348 0.82176,4.16184 0,5.4453 -0.82176,1.28348 -2.66467,-1.28346 -3.48644,0 -1.64352,2.56694 1.64352,8.32366 0,10.8906 -0.82175,1.28346 -2.66466,-1.28348 -3.48643,0 -0.82176,1.28346 0,3.6302 0,5.4453 0,1.81509 0,3.63019 0,5.44531 0,1.9997 -0.1403,21.56205 0,21.78119 1.64352,2.56694 5.32935,-2.56694 6.97287,0 0.82176,1.28346 -0.82176,4.16181 0,5.44529 0.83894,1.31032 13.10679,-1.31031 13.94573,0 0.82176,1.28346 -0.82176,4.16184 0,5.4453 0.82176,1.28348 2.32429,0 3.48643,0 1.16215,0 2.32429,0 3.48643,0 2.47119,0 20.01718,0.70394 20.9186,0 1.47001,-1.14798 2.01643,-4.29732 3.48643,-5.4453 1.03946,-0.81174 2.32429,0 3.48644,0 2.32429,0 4.64857,0 6.97286,0 1.82313,0 13.029,0.7159 13.94573,0 1.47001,-1.14797 2.01643,-4.29732 3.48644,-5.44529 1.38234,-1.07951 9.74654,1.11321 10.45929,0 0.82177,-1.28348 -0.82175,-4.16183 0,-5.44531 1.64352,-2.56694 5.93341,3.24694 6.97287,0 0,-30.85668 -2.32429,-1.8151 3.48643,-10.89059 0.82177,-1.28348 -1.03945,-4.63357 0,-5.44529 19.75646,0 1.16214,3.63019 6.97287,-5.44531 0.82175,-1.28346 2.66468,1.28347 3.48643,0 1.64352,-2.56694 -1.64352,-8.32365 0,-10.89059 0.82177,-1.28348 2.66468,1.28346 3.48643,0 0.82177,-1.28348 -0.82175,-4.16183 0,-5.44531 0.82177,-1.28346 2.66467,1.28348 3.48644,0 0.11214,-0.17515 0,-15.01526 0,-16.33588 0,-1.81512 0.82175,-4.16184 0,-5.44532 -0.11214,-0.17514 -9.61375,0 -10.4593,0 -1.57015,0 -9.39825,-0.82858 -10.4593,0 -1.47001,1.14798 -2.01643,4.29734 -3.48643,5.44532 -1.38235,1.07949 -9.74655,-1.11323 -10.4593,0 -0.82177,1.28346 0.82176,4.16181 0,5.44529 -1.64352,2.56694 -5.32935,-2.56694 -6.97287,0 -0.82175,1.28346 0.82177,4.16183 0,5.44529 -1.64352,2.56694 -5.32934,-2.56693 -6.97286,0 -0.82176,1.28348 0.82176,4.16184 0,5.4453 -9.29716,0 1.16214,-1.8151 -3.48644,5.44531 -0.82175,1.28346 -2.66466,-1.28348 -3.48643,0 -0.82175,1.28346 0.82177,4.16181 0,5.44529 -0.82175,1.28346 -2.66467,-1.28348 -3.48643,0 -0.49167,0.76793 -0.35758,15.21892 0,16.3359 0.73501,2.29595 2.01642,4.29732 3.48643,5.44529 2.07891,1.62349 5.32935,-2.56693 6.97287,0 0.82176,1.28348 -0.82176,4.16184 0,5.4453 1.64352,2.56694 4.89395,-1.62347 6.97286,0 1.47001,1.14797 2.01643,4.29734 3.48644,5.44531 0.91673,0.7159 12.1226,0 13.94573,0 1.16214,0 2.66466,-1.28348 3.48643,0 0.82177,1.28346 -0.82177,4.16181 0,5.44529 0.34864,0.54453 10.11065,0.54453 10.4593,0 0.82175,-1.28348 -0.82177,-4.16183 0,-5.44529 0.82175,-1.28348 2.66468,1.28346 3.48643,0 0.82177,-1.28348 -0.82175,-4.16183 0,-5.44531 0.82177,-1.28346 2.66468,1.28348 3.48643,0 0.82177,-1.28346 -0.82175,-4.16182 0,-5.4453 0.82177,-1.28346 2.66467,1.28348 3.48644,0 1.64352,-2.56693 -1.64352,-8.32364 0,-10.89058 0.82175,-1.28348 2.66466,1.28346 3.48643,0 0.82177,-1.28348 0,-3.63022 0,-5.44531 0,-7.2604 0,-14.52081 0,-21.7812 0,-1.81509 0,-3.63019 0,-5.44529 0,-1.8151 -1.16214,-5.44529 0,-5.44529 1.16214,0 0,3.63019 0,5.44529 0,7.26039 0,14.5208 0,21.78119 0,1.32063 -0.11214,16.16077 0,16.3359 0.82177,1.28346 2.66468,-1.28348 3.48643,0 0.82177,1.28346 -0.82175,4.16183 0,5.44529 1.64352,2.56694 5.32935,-2.56693 6.97287,0 0.82175,1.28348 -0.82177,4.16184 0,5.4453 0.54105,0.84505 9.10265,-0.70629 10.4593,0 2.46527,1.28348 4.50758,4.16183 6.97286,5.44531 1.96704,1.02407 8.16834,0 10.4593,0 8.17631,0 -1.64352,-1.28348 6.97287,5.44529 0.91673,0.7159 12.1226,0 13.94573,0 1.16214,0 2.32428,0 3.48643,0 1.16214,0 2.66467,1.28346 3.48643,0 0.82176,-1.28348 -0.82176,-4.16183 0,-5.44529 2.31968,-3.62301 4.65318,3.62301 6.97287,0 0.82176,-1.28348 -0.82177,-4.16183 0,-5.44531 0.82176,-1.28346 2.32428,0 3.48643,0 0,-1.8151 -0.82176,-4.16182 0,-5.4453 0.82176,-1.28346 2.66467,1.28348 3.48644,0 0.82175,-1.28346 -0.64465,-3.93503 0,-5.44529 1.82331,-4.27165 5.14953,-6.61896 6.97286,-10.8906 0.64464,-1.51026 -0.82176,-4.16184 0,-5.4453 0.82176,-1.28348 2.66467,1.28346 3.48643,0 0.82176,-1.28348 -0.51972,-3.82183 0,-5.44529 0.735,-2.29595 2.75143,-3.14937 3.48644,-5.44531 1.03944,-3.24695 -1.64352,-8.32365 0,-10.89059 0.82175,-1.28348 2.66466,1.28346 3.48643,0 0.83894,-1.31031 -0.83895,-20.4709 0,-21.78119 1.64352,-2.56694 4.89395,1.62346 6.97287,0 1.1018,-0.86044 -1.58322,-19.30846 0,-21.78119 1.64352,-2.56694 4.89395,1.62346 6.97286,0 1.10181,-0.86044 -1.58321,-19.30846 0,-21.78122 1.64352,-2.56693 4.89396,1.62349 6.97287,0 1.44719,-1.13015 -1.21697,-14.43517 0,-16.33587 0.82175,-1.28348 2.66466,1.28345 3.48643,0 0.82176,-1.28348 0,-3.63022 0,-5.44532 0,-1.81509 0,-3.63019 0,-5.44529 0,-10.89061 0,-21.78119 0,-32.6718 0,-1.8151 0,-3.63019 0,-5.44529 0,-1.8151 0.51973,-3.82183 0,-5.44529 -0.73501,-2.29595 -2.75143,-3.14937 -3.48643,-5.44532 -1.03946,-3.24694 1.64352,-8.32365 0,-10.89058 -0.82177,-1.28348 -2.96671,1.62346 -3.48644,0 -1.03945,-3.24695 1.03945,-7.64366 0,-10.89061 -0.51972,-1.62346 -2.66467,1.28348 -3.48643,0 -0.82176,-1.28346 0.82176,-4.16183 0,-5.44529 -0.82176,-1.28348 -2.32429,0 -3.48643,0 -1.28035,0 -13.80544,-0.21914 -13.94573,0 -0.82177,1.28346 0.82175,4.16183 0,5.44529 -0.82177,1.28348 -2.96671,-1.62346 -3.48644,0 -1.03945,3.24695 1.64352,8.32367 0,10.89061 -1.64352,2.56693 -4.76786,-1.14798 -6.97286,0 -1.55918,0.81174 -2.32429,3.63019 -3.48643,5.44529 -1.16216,1.8151 -2.75144,3.14937 -3.48644,5.44529 -0.51972,1.62349 0.82176,4.16184 0,5.44532 -0.82176,1.28346 -2.66467,-1.28348 -3.48643,0 -1.74322,2.72264 1.74321,13.61323 0,16.33589 -0.82177,1.28346 -2.66468,-1.28347 -3.48643,0 -0.82177,1.28346 0,3.6302 0,5.4453 0,10.89058 0,21.78119 0,32.6718 0,1.81509 0,3.63019 0,5.44529 0,1.8151 -0.82177,4.16183 0,5.44529 0.82175,1.28348 2.66466,-1.28346 3.48643,0 2.31968,3.62301 -2.31969,7.2676 0,10.89061 0.82176,1.28346 2.66467,-1.28348 3.48643,0 0.92949,1.45172 -0.92949,14.88417 0,16.3359 1.64352,2.56693 4.89396,-1.62349 6.97287,0 1.92559,1.50373 -2.72319,12.08266 0,16.33588 1.64352,2.56693 4.89395,-1.62347 6.97286,0 1.03946,0.81174 -0.51972,3.82183 0,5.44531 0.735,2.29592 2.75143,3.14935 3.48644,5.44529 0.51972,1.62348 -0.82177,4.16184 0,5.44529 0.82175,1.28348 2.66466,-1.28345 3.48643,0 0.82176,1.28348 -0.82177,4.16184 0,5.44532 1.64352,2.56694 5.32935,-2.56694 6.97287,0 0.82175,1.28346 0,3.63019 0,5.44529 1.16214,0 2.66466,-1.28348 3.48643,0 0.82175,1.28346 -0.82177,4.16183 0,5.44529 1.64352,2.56694 5.32934,-2.56693 6.97286,0 0.82176,1.28348 -0.82176,4.16184 0,5.4453 1.64352,2.56694 4.89396,-1.62347 6.97287,0 1.47001,1.14797 2.01643,4.29734 3.48643,5.44531 1.38235,1.07949 9.74655,-1.11323 10.4593,0 0.82176,1.28346 -1.03945,4.63355 0,5.44529 0.92237,0.7203 17.49232,0 20.9186,0 0.84554,0 10.34717,0.17515 10.4593,0 0.82175,-1.28348 -0.82177,-4.16183 0,-5.44529 0.82175,-1.28348 2.44697,0.81172 3.48643,0 14.50969,-11.33103 -3.72713,0.37591 3.48642,-10.89061 0.82177,-1.28346 2.66468,1.28348 3.48645,0 0.82175,-1.28346 -0.51973,-3.82183 0,-5.44529 0.73499,-2.29594 2.75142,-3.14937 3.48643,-5.44529 1.03944,-3.24697 -1.03946,-7.64366 0,-10.89061 0.735,-2.29594 2.75142,-3.14937 3.48642,-5.44529 0.53052,-1.6572 0,-13.88358 0,-16.3359 0,-1.8151 0.82177,-4.16183 0,-5.44529 -0.82175,-1.28348 -2.66467,1.28346 -3.48642,0 -0.82177,-1.28348 0,-3.63022 0,-5.44532 -1.16215,0 -2.66468,1.28348 -3.48643,0 -0.82177,-1.28346 0.82175,-4.16183 0,-5.44529 -0.82177,-1.28348 -2.3243,0 -3.48645,0 -10.4593,0 -20.91858,0 -31.37788,0 -2.32429,0 -4.89397,-1.62348 -6.97287,0 -1.03945,0.81174 0.82176,4.16183 0,5.44529 -1.64352,2.56694 -5.32934,-2.56693 -6.97286,0 -0.82177,1.28348 0,3.6302 0,5.44532 -1.16216,0 -2.66468,-1.28348 -3.48644,0 -1.64352,2.56693 1.64352,8.32364 0,10.89058 -0.82176,1.28348 -2.66467,-1.28346 -3.48643,0 -0.34864,0.54454 -0.34864,15.79138 0,16.3359 0.82176,1.28346 2.66467,-1.28348 3.48643,0 0.82176,1.28346 0,3.6302 0,5.44529 1.16214,0 2.66467,-1.28345 3.48644,0 0.82175,1.28348 -0.51973,3.82183 0,5.44532 0.73499,2.29592 2.75142,3.14935 3.48643,5.44529 0.51973,1.62346 -0.82177,4.16183 0,5.44529 0.82175,1.28348 2.66467,-1.28346 3.48643,0 0.82176,1.28348 -0.82176,4.16184 0,5.4453 1.64352,2.56694 5.32935,-2.56694 6.97287,0 0.82175,1.28348 -0.82177,4.16183 0,5.44531 0.82175,1.28346 2.44697,-0.81174 3.48643,0 1.47001,1.14797 2.01642,4.29732 3.48643,5.44529 2.0789,1.62349 5.32935,-2.56694 6.97287,0 0.82175,1.28346 -0.82177,4.16184 0,5.4453 0.82175,1.28347 2.32428,0 3.48643,0 1.16214,0 2.32428,0 3.48642,0 2.4712,0 20.01719,-0.70395 20.9186,0 1.47002,1.14797 2.01643,4.29734 3.48643,5.44531 1.06105,0.82859 8.88917,0 10.4593,0 6.97287,0 13.94573,0 20.9186,0 1.64385,0 17.27415,0.24679 17.43216,0 0,-14.5208 -1.16214,1.8151 3.48644,-5.44531 0.82176,-1.28346 -0.82176,-4.16184 0,-5.4453 0.82176,-1.28348 2.66467,1.28346 3.48643,0 1.74322,-2.72264 -1.74321,-13.61325 0,-16.3359 0.82177,-1.28346 2.66468,1.28348 3.48643,0 2.31969,-3.62301 -2.31968,-7.26757 0,-10.89058 0.82177,-1.28348 2.66468,1.28346 3.48644,0 0.1403,-0.21914 0,-19.7815 0,-21.78121 0,-1.8151 0.82176,-4.16182 0,-5.4453 -0.82176,-1.28346 -2.66467,1.28348 -3.48644,0 -0.82175,-1.28346 0.82177,-4.16183 0,-5.44529 -0.82175,-1.28348 -2.32428,0 -3.48643,0 -6.97287,0 -13.94573,0 -20.9186,0 -1.16214,0 -2.32428,0 -3.48643,0 -1.16214,0 -2.66467,-1.28348 -3.48643,0 -0.82176,1.28346 0.82176,4.16183 0,5.44529 -1.74321,2.72265 -8.71608,-2.72264 -10.4593,0 -0.82176,1.28348 0.82176,4.16184 0,5.4453 -0.82176,1.28347 -2.66467,-1.28346 -3.48642,0 -0.82177,1.28347 0.82175,4.16183 0,5.44531 -1.64352,2.56694 -5.32936,-2.56694 -6.97288,0 -1.64352,2.56694 1.64352,8.32365 0,10.89058 -0.82176,1.28348 -2.66467,-1.28345 -3.48642,0 -0.11215,0.17515 0,15.01528 0,16.3359 0,1.8151 -0.82177,4.16184 0,5.4453 0.82175,1.28348 2.66466,-1.28346 3.48642,0 0.82177,1.28348 -0.82176,4.16183 0,5.44531 1.74322,2.72265 8.71609,-2.72265 10.4593,0 0.82176,1.28346 -0.82176,4.16181 0,5.44529 0.11215,0.17515 9.61374,0 10.4593,0 1.28034,0 13.80543,0.21912 13.94573,0 0.82176,-1.28348 -0.82176,-4.16183 0,-5.44529 0.82176,-1.28348 2.66468,1.28346 3.48643,0 0.82177,-1.28348 -0.82175,-4.16183 0,-5.44531 0.82177,-1.28346 2.66468,1.28348 3.48643,0 0.82177,-1.28346 -0.82175,-4.16182 0,-5.4453 0.82177,-1.28346 2.3243,0 3.48644,0 0,-1.81509 -0.82176,-4.16183 0,-5.44529 0.82176,-1.28348 2.9667,1.62346 3.48643,0 1.03946,-3.24695 -1.03946,-7.64366 0,-10.89061 4.64858,-14.5208 3.48643,16.3359 3.48643,-5.44529 0,-1.8151 -1.03944,-4.63357 0,-5.44529 2.07891,-1.62348 4.89397,1.62346 6.97287,0 2.07891,-1.62348 -1.64352,-8.32367 0,-10.89061 0.82176,-1.28346 2.66468,1.28348 3.48643,0 0.14031,-0.21911 0,-19.78147 0,-21.78119 0,-14.5208 0,-29.0416 0,-43.56238 0,-1.8151 0,-3.63022 0,-5.44532 0,-1.81509 0.82177,-4.16181 0,-5.44529 -0.82175,-1.28346 -2.66467,1.28348 -3.48643,0 -1.07957,-1.68611 1.07956,-25.54038 0,-27.22648 -0.82176,-1.28348 -2.96671,1.62346 -3.48643,0 -1.03946,-3.24695 0,-7.26041 0,-10.89061 0,-3.6302 0,-7.26039 0,-10.89059 0,-1.81511 0,-3.63021 0,-5.44531 0,-1.8151 -1.16215,-5.44529 0,-5.44529 1.16215,0 0,3.63019 0,5.44529 0,5.44531 0,10.89061 0,16.3359 0,9.07551 0,18.151 0,27.2265 0,1.8151 0.82176,4.16182 0,5.4453 -0.82176,1.28346 -2.66467,-1.28348 -3.48644,0 -0.82175,1.28346 0,3.63019 0,5.44529 0,9.07551 0,18.151 0,27.22651 0,21.78119 0,43.56238 0,65.34357 0,1.8151 0,3.6302 0,5.44529 0,1.8151 -0.82175,4.16184 0,5.44532 0.82177,1.28346 2.66468,-1.28348 3.48644,0 1.64352,2.56694 -1.64352,8.32365 0,10.89058 0.82176,1.28348 2.66467,-1.28346 3.48643,0 0.82176,1.28348 -0.82176,4.16184 0,5.4453 0.82176,1.28348 2.66468,-1.28346 3.48643,0 0.82177,1.28348 -0.82175,4.16183 0,5.44531 0.82177,1.28346 2.66468,-1.28348 3.48643,0 0.82177,1.28346 -0.82175,4.16181 0,5.44529 0.82177,1.28346 2.44698,-0.81174 3.48644,0 1.47,1.14797 2.01642,4.29732 3.48643,5.4453 1.03946,0.81174 2.44699,-0.81175 3.48643,0 1.47001,1.14797 2.01643,4.29734 3.48644,5.44531 2.07891,1.62346 5.32934,-2.56694 6.97286,0 0.82177,1.28346 -0.82175,4.16181 0,5.44529 0.82177,1.28346 2.32429,0 3.48643,0 5.81073,0 11.62144,0 17.43217,0 1.16215,0 2.66468,1.28346 3.48643,0 4.64859,-7.26041 -5.81071,-5.44529 3.48643,-5.44529"
       id="path2993"
       inkscape:connector-curvature="0" />
    <path
       style="fill:none;stroke:#000000;stroke-width:1px;stroke-linecap:butt;stroke-linejoin:miter;stroke-opacity:1"
       d="m 8.5714283,552.36218 c 3.8095237,0 11.4285717,-3.80952 11.4285717,0 0,3.80953 -14.1223117,-2.69374 -11.4285717,0 3.0439197,3.04392 11.8173527,2.85715 17.1428567,2.85715 7.619048,0 15.238096,0 22.857143,0 5.714286,0 11.428572,0 17.142857,0 0.952381,0 2.183708,0.67343 2.857143,0 0.673435,-0.67344 -0.851835,-2.43123 0,-2.85715 0.755889,-0.37794 14.335016,0 17.142857,0 0.952381,0 1.904762,0 2.857143,0 0.952381,0 2.183708,0.67344 2.857143,0 0.673435,-0.67343 -0.673435,-2.1837 0,-2.85714 0.884706,-0.8847 13.401009,0.88471 14.285709,0 2.2335,-2.2335 -2.48521,-4.97043 -2.85714,-5.71428 -0.42592,-0.85184 0.67343,-2.18371 0,-2.85715 -0.67344,-0.67343 -2.18371,0.67344 -2.85714,0 -1.346866,-1.34687 1.34687,-4.36741 0,-5.71428 -0.673436,-0.67344 -2.183706,0.67343 -2.857146,0 -0.67343,-0.67344 0.67344,-2.18371 0,-2.85715 -0.67343,-0.67343 -2.1837,0.67344 -2.85714,0 -1.34687,-1.34687 1.34687,-4.36741 0,-5.71428 -0.673435,-0.67344 -2.183708,0.67343 -2.857143,0 -0.673435,-0.67344 0.425918,-2.00531 0,-2.85714 -0.602338,-1.20468 -2.254804,-1.65247 -2.857143,-2.85715 -0.851835,-1.70367 1.34687,-4.36741 0,-5.71428 -0.673435,-0.67344 -2.183708,0.67343 -2.857143,0 -1.34687,-1.34687 1.34687,-4.36742 0,-5.71429 -0.09189,-0.0919 -7.878495,0 -8.571428,0 -1.049248,0 -11.313596,-0.11497 -11.428572,0 -0.673435,0.67344 0,1.90476 0,2.85714 0,6.66667 0,13.33334 0,20 0,2.7682 -0.567877,15.43923 0,17.14286 0.673435,2.02031 2.183708,3.69398 2.857143,5.71429 0.525073,1.57522 -0.610853,10.81772 0,11.42857 0.673435,0.67343 2.183708,-0.67344 2.857143,0 0.673435,0.67343 0,1.90476 0,2.85714 0,1.90476 0,3.80952 0,5.71429 0,1.70269 -0.350838,19.29832 0,20 1.204677,2.40935 4.220068,3.47296 5.714286,5.71428 0.528286,0.79243 0,1.90476 0,2.85715 0,0.95238 0,1.90476 0,2.85714 0,5.71428 0,11.42857 0,17.14286 0,1.28673 -0.434763,7.7019 0,8.57142 0.602338,1.20468 2.254804,1.65247 2.857143,2.85715 0.434763,0.86952 0,7.28469 0,8.57143 0,7.61904 -0.952381,-0.95239 2.857143,2.85714 0.673435,0.67343 -0.673435,2.18371 0,2.85714 0.673435,0.67344 2.183707,-0.67343 2.857142,0 0.673435,0.67344 -0.673435,2.18371 0,2.85714 0.673435,0.67344 2.183708,-0.67343 2.857143,0 0.673435,0.67344 -0.673435,2.18371 0,2.85715 0.673435,0.67343 1.904762,0 2.857143,0 0.952381,0 2.183708,0.67343 2.857143,0 0.67344,-0.67344 -0.673435,-2.18371 0,-2.85715 0.67344,-0.67343 2.18371,0.67344 2.85714,0 0.67344,-0.67343 -0.67343,-2.1837 0,-2.85714 0.67344,-0.67343 2.18371,0.67344 2.857146,0 0.67343,-0.67343 -0.673436,-2.18371 0,-2.85714 0.67343,-0.67344 2.1837,0.67343 2.85714,0 0.67343,-0.67344 -0.67344,-2.18371 0,-2.85714 0.67343,-0.67344 2.18371,0.67343 2.85714,0 0.67344,-0.67344 -0.67343,-2.18371 0,-2.85715 0.67344,-0.67343 2.18371,0.67344 2.85714,0 0.67344,-0.67343 0,-1.90476 0,-2.85714 0,-1.90476 -0.85183,-4.01062 0,-5.71429 1.20468,-2.40935 4.22007,-3.47295 5.71429,-5.71428 0.52715,-0.79072 0,-15.95229 0,-17.14286 0,-0.95238 -0.67344,-2.18371 0,-2.85714 4.7619,-4.76191 2.85714,10.47619 2.85714,-5.71429 0,-0.69293 -0.0919,-8.47954 0,-8.57143 4.42063,-4.42063 2.85715,7.63086 2.85715,8.57143 0,6.66667 0,13.33334 0,20 0,0.95238 -0.67344,2.18371 0,2.85715 0.67343,0.67343 2.1837,-0.67344 2.85714,0 0.67343,0.67343 -0.67344,2.1837 0,2.85714 0.67343,0.67343 2.18371,-0.67344 2.85714,0 0.67344,0.67343 -0.67343,2.18371 0,2.85714 0.12949,0.12949 12.93858,0 14.28572,0 7.61904,0 15.23809,0 22.85714,0 0.95238,0 2.18371,0.67344 2.85714,0 0.67344,-0.67343 -0.67343,-2.18371 0,-2.85714 1.42857,-1.42857 7.14286,1.42857 8.57143,0 0.67344,-0.67344 -0.85184,-2.43123 0,-2.85714 1.70367,-0.85184 4.01061,0.85183 5.71429,0 0.85183,-0.42592 -0.67344,-2.18371 0,-2.85715 0.67343,-0.67343 2.1837,0.67344 2.85714,0 1.34687,-1.34687 -1.34687,-4.36741 0,-5.71428 0.67343,-0.67344 2.18371,0.67343 2.85714,0 0.67344,-0.67344 0,-1.90477 0,-2.85715 0,-1.34713 0.12949,-14.15622 0,-14.28571 -0.67343,-0.67344 -2.18371,-0.67344 -2.85714,0 -0.67344,0.67343 0.67343,2.18371 0,2.85714 -0.67344,0.67344 -2.18371,-0.67343 -2.85714,0 -0.67344,0.67344 0.67343,2.18371 0,2.85715 -1.34687,1.34687 -4.36742,-1.34687 -5.71429,0 -1.42857,1.42857 1.42857,7.14285 0,8.57142 -0.67344,0.67344 -2.18371,-0.67343 -2.85714,0 -1.90099,1.90099 1.90099,3.8133 0,5.71429 -0.67344,0.67343 -2.18371,-0.67344 -2.85715,0 -1.34687,1.34687 1.34687,4.36742 0,5.71429 -0.67343,0.67343 -2.1837,-0.67344 -2.85714,0 -0.12949,0.12949 0,12.93857 0,14.28571 0,0.95238 -0.67343,2.18371 0,2.85714 0.67344,0.67344 1.90476,0 2.85714,0 0.95239,0 1.90477,0 2.85715,0 0.69293,0 8.47954,0.0919 8.57143,0 0.67343,-0.67343 -0.67344,-2.18371 0,-2.85714 0.67343,-0.67344 2.0053,0.42592 2.85714,0 0.7586,-0.3793 8.19213,-7.81283 8.57143,-8.57143 0.42591,-0.85183 -0.67344,-2.18371 0,-2.85714 0.67343,-0.67344 2.1837,0.67343 2.85714,0 1.34687,-1.34687 -1.34687,-4.36742 0,-5.71429 0.67344,-0.67343 2.18371,0.67344 2.85714,0 0.67344,-0.67343 0,-1.90476 0,-2.85714 0,-0.95238 0,-1.90476 0,-2.85714 0,-1.90477 0,-3.80953 0,-5.71429 0,-0.95238 -0.95238,-2.85714 0,-2.85714 0.95238,0 0,1.90476 0,2.85714 0,3.80952 0,7.61905 0,11.42857 0,0.95238 -0.67343,2.18371 0,2.85715 0.67344,0.67343 2.18371,-0.67344 2.85715,0 0.67343,0.67343 -0.67344,2.1837 0,2.85714 7.61904,0 -0.95239,-0.95238 2.85714,2.85714 1.34687,1.34687 4.36741,-1.34687 5.71428,0 0.67344,0.67344 -0.67343,2.18371 0,2.85714 0.11498,0.11498 10.37933,0 11.42858,0 0.95238,0 2.1837,0.67344 2.85714,0 0.67343,-0.67343 -0.67344,-2.1837 0,-2.85714 0.67343,-0.67343 2.18371,0.67344 2.85714,0 1.34687,-1.34687 -1.34687,-4.36741 0,-5.71428 0.67344,-0.67344 2.43123,0.85183 2.85714,0 0.85184,-1.70368 0,-3.80953 0,-5.71429 0,-0.95238 -0.67343,-2.18371 0,-2.85714 0.67344,-0.67344 2.18371,0.67343 2.85715,0 0.5841,-0.58411 -0.56642,-7.4386 0,-8.57143 0.60234,-1.20468 2.2548,-1.65247 2.85714,-2.85714 0.42592,-0.85184 -0.67344,-2.18371 0,-2.85715 1.34687,-1.34687 4.36742,1.34687 5.71429,0 0.67343,-0.67343 -0.67344,-2.18371 0,-2.85714 0.28571,-0.28571 8.28571,-0.28571 8.57142,0 0.67344,0.67343 -0.67343,2.18371 0,2.85714 0.67344,0.67344 2.18371,-0.67343 2.85715,0 1.34687,1.34687 -1.34687,4.36742 0,5.71429 0.67343,0.67343 2.1837,-0.67344 2.85714,0 1.34687,1.34687 -1.34687,4.36741 0,5.71428 0.67344,0.67344 2.18371,-0.67343 2.85714,0 0.67344,0.67344 0,1.90477 0,2.85715 0,0.95238 0,1.90476 0,2.85714 0,6.70051 -0.67343,-1.34687 2.85715,5.71429 0.42591,0.85183 0,1.90476 0,2.85714 0,0.95238 0,1.90476 0,2.85714 0,0.95238 0,3.80952 0,2.85714 0,-4.7619 0,-9.52381 0,-14.28571 0,-0.95238 -0.67344,-2.18371 0,-2.85714 0.67343,-0.67344 2.1837,0.67343 2.85714,0 0.5841,-0.58411 -0.56642,-7.4386 0,-8.57143 0.60234,-1.20468 1.90476,-1.90476 2.85714,-2.85714 0.95238,-0.95239 1.65247,-2.25481 2.85714,-2.85715 0.58608,-0.29304 8.1685,-0.40293 8.57143,0 0.67344,0.67344 -0.67343,2.18371 0,2.85715 0.67344,0.67343 2.18371,-0.67344 2.85715,0 1.34687,1.34687 -1.34687,4.36741 0,5.71428 0.67343,0.67344 2.1837,-0.67343 2.85714,0 1.42857,1.42857 -1.42857,7.14286 0,8.57143 0.67343,0.67343 2.18371,-0.67344 2.85714,0 1.42857,1.42857 -1.42857,7.14286 0,8.57143 3.80953,3.80952 2.85714,-4.76191 2.85714,2.85714 0,7.61905 -0.95238,-0.95238 2.85715,2.85714 0.67343,0.67344 -0.67344,2.18371 0,2.85715 0.67343,0.67343 1.90476,0 2.85714,0 0.95238,0 2.18371,0.67343 2.85714,0 0.67344,-0.67344 -0.67343,-2.18371 0,-2.85715 0.67344,-0.67343 2.00531,0.42592 2.85715,0 1.20467,-0.60233 1.65246,-2.2548 2.85714,-2.85714 0.85183,-0.42592 2.18371,0.67344 2.85714,0 0.67344,-0.67343 0,-1.90476 0,-2.85714 0.95238,0 2.18371,0.67343 2.85714,0 1.34687,-1.34687 -1.34687,-4.36742 0,-5.71429 0.67344,-0.67343 2.18371,0.67344 2.85715,0 1.42857,-1.42857 -1.42857,-7.14285 0,-8.57143 0.67343,-0.67343 2.43122,0.85184 2.85714,0 1.27775,-2.5555 0,-5.71428 0,-8.57142 0,-5.71429 0,-11.42858 0,-17.14286 0,-0.95238 -0.67344,-2.18371 0,-2.85714 0.67344,-0.67344 2.00531,-0.42592 2.85714,0 5.77852,2.88925 0.91621,6.63049 2.85715,8.57142 0.67343,0.67344 2.1837,-0.67343 2.85714,0 1.34687,1.34687 -0.85184,4.01062 0,5.71429 0.60234,1.20468 2.2548,1.65247 2.85714,2.85714 0.85184,1.70367 -0.85183,4.01062 0,5.71429 0.60234,1.20468 2.25481,1.65246 2.85714,2.85714 0.56642,1.13284 -0.5841,7.98733 0,8.57143 0.67344,0.67343 2.18371,-0.67344 2.85715,0 0.67343,0.67343 0,1.90476 0,2.85714 0,0.95238 0.67343,2.18371 0,2.85715 -0.12949,0.12949 -12.93858,0 -14.28572,0 -0.95238,0 -2.1837,0.67343 -2.85714,0 -0.67344,-0.67344 0.67344,-2.18371 0,-2.85715 -0.67344,-0.67343 -2.18371,0.67344 -2.85714,0 -0.67344,-0.67343 0,-1.90476 0,-2.85714 0,-0.95238 -0.67344,-2.18371 0,-2.85714 2.2335,-2.23351 4.97043,2.48521 5.71428,2.85714 0.75126,0.37563 9.93452,0 11.42857,0 9.52381,0 19.04762,0 28.57143,0 0.69294,0 8.47955,0.0919 8.57143,0 0.67344,-0.67344 0,-1.90476 0,-2.85714 0.95238,0 2.18371,0.67343 2.85714,0 1.34687,-1.34687 -1.34687,-4.36742 0,-5.71429 0.67344,-0.67343 2.18371,0.67344 2.85715,0 0.67343,-0.67343 -0.42592,-2.00531 0,-2.85714 0.60234,-1.20468 2.2548,-1.65247 2.85714,-2.85714 0.42592,-0.85184 -0.42592,-2.00531 0,-2.85715 0.60234,-1.20467 2.2548,-1.65246 2.85714,-2.85714 0.56642,-1.13283 -0.5841,-7.98732 0,-8.57143 0.67344,-0.67343 2.18371,0.67344 2.85715,0 0.67343,-0.67343 0,-1.90476 0,-2.85714 0,-4.76191 0,-9.52381 0,-14.28572 0,-0.69293 0.0919,-8.47954 0,-8.57142 -0.67344,-0.67344 -2.18371,0.67343 -2.85715,0 -1.34687,-1.34687 1.34687,-4.36742 0,-5.71429 -0.67343,-0.67344 -2.1837,0.67343 -2.85714,0 -0.67344,-0.67344 0,-1.90476 0,-2.85714 -0.95238,0 -2.18371,0.67343 -2.85714,0 -0.67344,-0.67344 0,-1.90477 0,-2.85715 -0.95238,0 -2.18371,0.67344 -2.85715,0 -0.67343,-0.67343 0.67344,-2.1837 0,-2.85714 -0.67343,-0.67343 -2.1837,-0.67343 -2.85714,0 -0.67343,0.67344 0.67344,2.18371 0,2.85714 -0.67343,0.67344 -2.18371,-0.67343 -2.85714,0 -0.67344,0.67344 0.67343,2.18371 0,2.85715 -0.67344,0.67343 -2.18371,-0.67344 -2.85714,0 -1.34687,1.34687 1.34687,4.36741 0,5.71428 -0.67344,0.67344 -2.18371,-0.67343 -2.85715,0 -0.67343,0.67344 0,1.90476 0,2.85715 0,0.95238 0,1.90476 0,2.85714 0,6.70051 0.67344,-1.34687 -2.85714,5.71428 -0.37563,0.75127 0,9.93452 0,11.42858 0,0.95238 -0.67344,2.1837 0,2.85714 0.67344,0.67343 2.18371,-0.67344 2.85714,0 1.34687,1.34687 -1.34687,4.36741 0,5.71428 0.67344,0.67344 2.18371,-0.67343 2.85715,0 1.34687,1.34687 -1.34687,4.36742 0,5.71429 0.67343,0.67343 2.1837,-0.67344 2.85714,0 1.34687,1.34687 -0.85184,4.01061 0,5.71429 0.60234,1.20467 2.2548,1.65246 2.85714,2.85714 0.42592,0.85183 -0.67343,2.18371 0,2.85714 0.67344,0.67344 2.18371,-0.67343 2.85714,0 0.67344,0.67344 -0.42591,2.00531 0,2.85714 0.60234,1.20468 1.90477,1.90477 2.85715,2.85715 0.95238,0.95238 1.65246,2.2548 2.85714,2.85714 0.85184,0.42592 2.18371,-0.67344 2.85714,0 0.67344,0.67343 -0.67343,2.18371 0,2.85714 1.34687,1.34687 4.36742,-1.34687 5.71429,0 0.67343,0.67344 -0.67344,2.18371 0,2.85715 0.67343,0.67343 1.90476,0 2.85714,0 0.95238,0 1.90476,0 2.85714,0 6.66667,0 13.33334,0 20,0 0.95239,0 2.18371,0.67343 2.85715,0 0.67343,-0.67344 -0.67344,-2.18371 0,-2.85715 0.67343,-0.67343 2.1837,0.67344 2.85714,0 0.67344,-0.67343 -0.67344,-2.18371 0,-2.85714 0.67344,-0.67344 2.18371,0.67343 2.85714,0 0.67344,-0.67344 -0.67343,-2.18371 0,-2.85714 0.67344,-0.67344 2.18371,0.67343 2.85715,0 0.67343,-0.67344 -0.42592,-2.00531 0,-2.85715 0.60233,-1.20467 2.2548,-1.65246 2.85714,-2.85714 0.42592,-0.85183 -0.67344,-2.18371 0,-2.85714 0.67343,-0.67344 2.18371,0.67343 2.85714,0 1.34687,-1.34687 -0.85183,-4.01062 0,-5.71429 0.60234,-1.20467 2.25481,-1.65246 2.85714,-2.85714 0.42592,-0.85184 0,-1.90476 0,-2.85714 0,-0.95238 0.67344,-2.18371 0,-2.85715 -0.67343,-0.67343 -1.90476,0 -2.85714,0 -1.04925,0 -11.31359,-0.11497 -11.42857,0 -0.67344,0.67344 0.67344,2.18371 0,2.85715 -1.34687,1.34687 -4.36742,-1.34687 -5.71429,0 -0.67343,0.67343 0.67344,2.1837 0,2.85714 -0.67343,0.67343 -2.1837,-0.67344 -2.85714,0 -0.67343,0.67343 0.67344,2.18371 0,2.85714 -0.67343,0.67344 -2.18371,-0.67343 -2.85714,0 -0.67344,0.67344 0.67343,2.18371 0,2.85715 -0.67344,0.67343 -2.18371,-0.67344 -2.85714,0 -1.34687,1.34687 1.34687,4.36741 0,5.71428 -0.67344,0.67344 -2.18371,-0.67343 -2.85715,0 -0.67343,0.67344 0,1.90476 0,2.85714 0,1.04925 -0.11497,11.3136 0,11.42858 0.67344,0.67343 2.18371,-0.67344 2.85715,0 0.67343,0.67343 -0.67344,2.1837 0,2.85714 0.67343,0.67343 1.90476,0 2.85714,0 0.95238,0 1.90476,0 2.85714,0 1.04925,0 11.3136,0.11497 11.42857,0 0.67344,-0.67344 -0.67343,-2.18371 0,-2.85714 0.67344,-0.67344 2.18371,0.67343 2.85715,0 0.67343,-0.67344 -0.67344,-2.18371 0,-2.85715 0.67343,-0.67343 2.1837,0.67344 2.85714,0 1.42857,-1.42857 -1.42857,-7.14285 0,-8.57143 0.67343,-0.67343 2.18371,0.67344 2.85714,0 0.58411,-0.5841 -0.56642,-7.43859 0,-8.57142 0.60234,-1.20468 2.25481,-1.65247 2.85714,-2.85715 0.42592,-0.85183 0,-3.80952 0,-2.85714 0,1.90476 0,3.80952 0,5.71429 0,0.95238 -0.42591,2.0053 0,2.85714 0.60234,1.20468 2.25481,1.65246 2.85715,2.85714 0.42591,0.85184 -0.67344,2.18371 0,2.85714 0.67343,0.67344 2.1837,-0.67343 2.85714,0 5.91153,5.91153 -9.0336,-0.23108 2.85714,5.71429 0.85184,0.42592 2.18371,-0.67344 2.85715,0 0.67343,0.67343 -0.67344,2.18371 0,2.85714 0.28571,0.28572 8.28571,0.28572 8.57142,0 0.67344,-0.67343 -0.67343,-2.18371 0,-2.85714 0.67344,-0.67344 2.06472,0.52829 2.85715,0 2.24132,-1.49422 3.30493,-4.50961 5.71428,-5.71429 1.70367,-0.85183 4.01062,0.85184 5.71429,0 0.85183,-0.42591 -0.85184,-2.43122 0,-2.85714 1.70367,-0.85183 4.12943,1.05657 5.71428,0 1.77193,-1.18128 1.3513,-4.20844 2.85715,-5.71428 0.67343,-0.67344 2.1837,0.67343 2.85714,0 0.67344,-0.67344 -0.67344,-2.18371 0,-2.85715 0.67344,-0.67343 2.43123,0.85184 2.85714,0 0.85184,-1.70367 -1.34687,-4.36741 0,-5.71428 1.34687,-1.34687 4.01062,0.85183 5.71429,0 0.85183,-0.42592 -0.67344,-2.18371 0,-2.85715 0.67343,-0.67343 2.18371,0.67344 2.85714,0 0.67344,-0.67343 -0.67343,-2.1837 0,-2.85714 0.67344,-0.67343 2.18371,0.67344 2.85714,0 0.67344,-0.67343 -0.85183,-2.43122 0,-2.85714 1.70368,-0.85184 4.36742,1.34687 5.71429,0 1.42857,-1.42857 -1.42857,-7.14286 0,-8.57143 0.67344,-0.67344 2.18371,0.67343 2.85714,0 1.34687,-1.34687 -0.85183,-4.01062 0,-5.71429 0.60234,-1.20467 2.25481,-1.65246 2.85715,-2.85714 0.37563,-0.75126 0,-9.93451 0,-11.42857 0,-1.49406 0.37563,-10.67731 0,-11.42857 -0.60234,-1.20468 -2.25481,-1.65247 -2.85715,-2.85714 -0.42591,-0.85184 0.42592,-2.00531 0,-2.85715 -0.60234,-1.20467 -2.2548,-1.65246 -2.85714,-2.85714 -0.42592,-0.85184 0.42592,-2.00531 0,-2.85714 -0.60234,-1.20468 -2.2548,-1.65247 -2.85714,-2.85715 -0.42592,-0.85183 0.67343,-2.1837 0,-2.85714 -0.67344,-0.67343 -2.18371,-0.67343 -2.85715,0 -0.67343,0.67344 0,1.90476 0,2.85714 0,4.76191 0,9.52381 0,14.28572 0,2.02515 -0.36935,16.40414 0,17.14286 0.60234,1.20467 2.25481,1.65246 2.85715,2.85714 1.14285,2.28571 -1.14286,6.28571 0,8.57143 0.60234,1.20467 2.2548,1.65246 2.85714,2.85714 0.85184,1.70367 -0.85184,4.01061 0,5.71429 0.60234,1.20467 2.2548,1.65246 2.85714,2.85714 0.85184,1.70367 -1.34687,4.36741 0,5.71428 0.67344,0.67344 2.18371,-0.67343 2.85715,0 1.34687,1.34687 -0.85184,4.01062 0,5.71429 0.60233,1.20468 2.2548,1.65247 2.85714,2.85714 0.42592,0.85184 -0.42592,2.00531 0,2.85715 0.60234,1.20467 2.2548,1.65246 2.85714,2.85714 0.85184,1.70367 -1.34687,4.36741 0,5.71428 0.67344,0.67344 2.18371,-0.67343 2.85714,0 1.90099,1.90099 -1.90099,3.8133 0,5.71429 0.67344,0.67343 2.18371,-0.67344 2.85715,0 0.67343,0.67343 -0.67344,2.18371 0,2.85714 0.67343,0.67344 2.1837,-0.67343 2.85714,0 0.67344,0.67344 -0.67344,2.18371 0,2.85715 1.90099,1.90099 3.8133,-1.90099 5.71429,0 0.67343,0.67343 -0.67344,2.1837 0,2.85714 0.67343,0.67343 1.90476,0 2.85714,0 1.04925,0 11.31359,0.11497 11.42857,0 0.67344,-0.67344 -0.67344,-2.18371 0,-2.85714 0.67344,-0.67344 2.18371,0.67343 2.85714,0 0.67344,-0.67344 -0.67343,-2.18371 0,-2.85715 0.67344,-0.67343 2.18371,0.67344 2.85715,0 0.67343,-0.67343 -0.67344,-2.18371 0,-2.85714 0.67343,-0.67344 2.1837,0.67343 2.85714,0 1.34687,-1.34687 -1.34687,-4.36742 0,-5.71429 0.67343,-0.67343 2.18371,0.67344 2.85714,0 0.67344,-0.67343 0,-1.90476 0,-2.85714 0,-0.95238 0,-1.90476 0,-2.85714 0,-5.71429 0,-11.42857 0,-17.14286 0,-0.95238 0.67344,-2.18371 0,-2.85714 -0.67343,-0.67344 -2.18371,0.67343 -2.85714,0 -0.67344,-0.67344 0.67343,-2.18371 0,-2.85714 -0.67344,-0.67344 -1.90476,0 -2.85714,0 -0.69294,0 -8.47955,-0.0919 -8.57143,0 -0.67344,0.67343 0.67343,2.1837 0,2.85714 -0.67344,0.67343 -2.18371,-0.67344 -2.85715,0 -0.67343,0.67343 0.67344,2.18371 0,2.85714 -0.67343,0.67344 -2.1837,-0.67343 -2.85714,0 -0.67343,0.67344 0.67344,2.18371 0,2.85714 -0.67343,0.67344 -2.18371,-0.67343 -2.85714,0 -0.11498,0.11498 0,10.37933 0,11.42858 0,0.95238 0,1.90476 0,2.85714 0,0.95238 -0.67344,2.18371 0,2.85714 0.67343,0.67344 2.00531,-0.42592 2.85714,0 1.20468,0.60234 1.65247,2.25481 2.85714,2.85714 1.13284,0.56642 7.98733,-0.5841 8.57143,0 0.67344,0.67344 -0.67343,2.18371 0,2.85715 0.67344,0.67343 1.90476,0 2.85715,0 0.95238,0 1.90476,0 2.85714,0 0.93829,0 8.14572,-0.28381 8.57143,0 2.24132,1.49422 3.30493,4.50961 5.71428,5.71428 0.67186,0.33593 9.55165,0 11.42857,0 8.57143,0 17.14286,0 25.71429,0 0.69293,0 8.47954,0.0919 8.57143,0 0.67343,-0.67343 -0.42592,-2.0053 0,-2.85714 0.60234,-1.20468 2.2548,-1.65247 2.85714,-2.85714 0.42592,-0.85184 -0.67343,-2.18371 0,-2.85715 0.67344,-0.67343 2.18371,0.67344 2.85714,0 0.67344,-0.67343 0,-1.90476 0,-2.85714 0,-2.85714 0,-5.71428 0,-8.57143 0,-1.04924 0.11498,-11.31359 0,-11.42857 -1.34687,-1.34687 -4.36741,1.34687 -5.71428,0 -0.67344,-0.67343 0.67343,-2.18371 0,-2.85714 -0.12949,-0.12949 -12.93858,0 -14.28572,0 -0.95238,0 -2.1837,-0.67344 -2.85714,0 -0.67343,0.67343 0.67344,2.18371 0,2.85714 -0.67343,0.67344 -1.90476,0 -2.85714,0 -1.08878,0 -14.00839,-0.27732 -14.28572,0 -0.67343,0.67344 0.67344,2.18371 0,2.85714 -0.003,0.003 -8.55847,-0.004 -8.57142,0 -1.27776,0.42592 -1.90477,1.90477 -2.85715,2.85715 -0.95238,0.95238 -2.2548,1.65246 -2.85714,2.85714 -0.43476,0.86953 0,7.28469 0,8.57143 0,0.95238 -0.67344,2.18371 0,2.85714 7.61905,0 -0.95238,-0.95238 2.85714,2.85714 1.34687,1.34687 4.36742,-1.34687 5.71429,0 0.67343,0.67344 -0.67344,2.18371 0,2.85715 0.67343,0.67343 1.90476,0 2.85714,0 2.02515,0 16.40414,0.36935 17.14286,0 1.20468,-0.60234 1.90476,-1.90477 2.85714,-2.85715 0.95238,-0.95238 2.25481,-1.65246 2.85714,-2.85714 0.42592,-0.85183 -0.67343,-2.18371 0,-2.85714 0.67344,-0.67344 2.18371,0.67343 2.85715,0 0.67343,-0.67344 -0.67344,-2.18371 0,-2.85714 0.67343,-0.67344 2.1837,0.67343 2.85714,0 0.67344,-0.67344 -0.42592,-2.00531 0,-2.85715 0.60234,-1.20467 2.2548,-1.65246 2.85714,-2.85714 0.85184,-1.70367 -1.70367,-4.86245 0,-5.71429 1.70367,-0.85183 4.01062,0.85184 5.71429,0 1.70367,-0.85183 -0.85184,-4.01061 0,-5.71428 0.60234,-1.20468 2.43122,-1.57939 2.85714,-2.85714 0.60234,-1.80702 0,-3.80953 0,-5.71429 0,-1.90476 0,-3.80952 0,-5.71429 0,-6.66666 0,-13.33333 0,-20 0,-4.7619 0,-9.52381 0,-14.28571 0,-0.95238 0.67344,-2.18371 0,-2.85714 -0.67343,-0.67344 -2.18371,0.67343 -2.85714,0 -1.34687,-1.34687 1.34687,-4.36742 0,-5.71429 -0.67344,-0.67343 -2.18371,0.67344 -2.85714,0 -0.28572,-0.28571 1.33333,-9.90476 -2.85715,-5.71428 -0.67343,0.67343 0,1.90476 0,2.85714 0,6.66666 0,13.33333 0,20 0,9.52381 0,19.04762 0,28.57143 0,0.95238 0,1.90476 0,2.85714 0,0.95238 -0.67343,2.18371 0,2.85714 0.67344,0.67344 2.43123,-0.85183 2.85715,0 0.52164,1.04329 -0.55612,13.7296 0,14.28572 0.67343,0.67343 2.43122,-0.85184 2.85714,0 1.70367,3.40734 -1.70367,8.02123 0,11.42857 0.42592,0.85183 2.18371,-0.67344 2.85714,0 0.67344,0.67343 -0.42592,2.00531 0,2.85714 0.60234,1.20468 2.25481,1.65247 2.85714,2.85714 0.42592,0.85184 -0.67343,2.18371 0,2.85715 0.67344,0.67343 2.18371,-0.67344 2.85715,0 0.67343,0.67343 -0.67344,2.1837 0,2.85714 0.67343,0.67343 1.90476,0 2.85714,0 1.49406,0 10.67731,0.37563 11.42857,0 5.77852,-2.88926 0.91621,-6.6305 2.85714,-8.57143 0.67344,-0.67343 2.18371,0.67344 2.85715,0 0.68751,-0.68752 -0.68752,-10.74105 0,-11.42857 0.67343,-0.67344 2.1837,0.67343 2.85714,0 1.42857,-1.42857 -1.42857,-7.14286 0,-8.57143 0.67344,-0.67343 2.18371,0.67344 2.85714,0 0.99731,-0.9973 -1.18598,-7.97844 0,-8.57143 1.70367,-0.85183 4.36742,1.34687 5.71429,0 1.34687,-1.34687 0,-3.80952 0,-5.71428 0,-0.95238 0,-1.90477 0,-2.85715 0,-1.04924 0.11497,-11.31359 0,-11.42857 -0.67344,-0.67343 -2.18371,0.67344 -2.85714,0 -0.67344,-0.67343 0.67343,-2.18371 0,-2.85714 -0.67344,-0.67344 -2.00531,0.42592 -2.85715,0 -1.20467,-0.60234 -1.65246,-2.2548 -2.85714,-2.85714 -2.85714,-1.42857 -5.71429,2.85714 -8.57143,0 -7.61905,-7.61905 9.52381,-5.71429 -5.71428,-5.71429 -10.34502,0 -1.14236,1.14319 -11.42858,-5.71428 -0.98258,-0.65506 -7.94507,0.62635 -8.57142,0 -0.67344,-0.67344 0.85183,-2.43123 0,-2.85715 -1.70368,-0.85183 -3.80953,0 -5.71429,0 -6.66667,0 -13.33333,0 -20,0 -0.95238,0 -1.90476,0 -2.85714,0 -0.95238,0 -2.18371,0.67344 -2.85715,0 -0.67343,-0.67343 0.67344,-2.18371 0,-2.85714 -0.67343,-0.67344 -1.90476,0 -2.85714,0 -6.66667,0 -13.33333,0 -20,0 -10.47619,0 -20.95238,0 -31.42857,0 -2.39429,0 -13.07138,-0.60716 -14.28571,0 -2.40936,1.20468 -3.47296,4.22007 -5.71429,5.71429 -1.23489,0.82326 -13.61229,-0.67343 -14.28571,0 -0.67344,0.67343 0.67343,2.1837 0,2.85714 -0.67344,0.67343 -1.90477,0 -2.85715,0 -8.57143,0 -17.14285,0 -25.71428,0"
       id="path2995"
       inkscape:connector-curvature="0" />
    <path
       style="fill:none;stroke:#000000;stroke-width:1px;stroke-linecap:butt;stroke-linejoin:miter;stroke-opacity:1"
       d="m 203.41781,762.06749 c 4.38779,-11.11563 5.35184,-10.95673 12.81524,-16.38361 0.77027,-0.5601 2.1622,-0.73957 2.31082,-1.68028 0.14863,-0.94072 -1.8289,-1.37012 -1.68028,-2.31083 0.14863,-0.94072 1.54056,-1.12019 2.31083,-1.68028 0.77028,-0.5601 1.54055,-1.12019 2.31083,-1.68028 5.39194,-3.92066 10.78386,-7.84131 16.17579,-11.76197 1.04071,-0.75673 5.97354,-4.8811 6.93249,-5.04084 1.32857,-0.2213 2.66254,0.85186 3.9911,0.63055 1.86004,-0.30983 12.04825,-9.77906 13.86497,-10.08168 0.93943,-0.15648 0.73956,2.16221 1.68028,2.31083 1.23343,0.19487 10.33059,-8.59471 11.55413,-8.4014 0.94072,0.14861 0.73958,2.1622 1.68028,2.31082 3.31934,0.52442 1.30232,-3.88497 4.62166,-3.36056 0.94071,0.14862 0.73957,2.16221 1.68028,2.31083 1.99556,0.31527 4.93693,-5.35612 6.93249,-5.04084 1.88142,0.29724 1.66967,3.7447 3.36056,4.62165 1.69087,0.87695 2.74022,-3.6578 4.62165,-3.36056 0.94071,0.14862 0.83484,1.87235 1.68028,2.31083 1.46583,0.76023 6.51638,0.50086 7.98222,1.2611 0.84544,0.43846 0.73956,2.1622 1.68028,2.31082 0.9407,0.14862 1.46538,-2.11875 2.31082,-1.68028 1.69089,0.87695 2.24037,3.0811 3.36056,4.62165 0.5601,0.77029 0.73957,2.16221 1.68028,2.31084 0.94072,0.14861 1.37012,-1.82891 2.31083,-1.68028 0.94071,0.14861 1.12019,1.54055 1.68028,2.31082 2.80046,3.85138 5.60093,7.70276 8.4014,11.55414 0.5601,0.77028 0.73957,2.1622 1.68028,2.31083 0.94072,0.14861 1.37012,-1.82891 2.31084,-1.68029 0.9407,0.14862 1.12018,1.54055 1.68027,2.31083 0.5601,0.77027 1.8289,1.37012 1.68028,2.31082 -0.14862,0.94072 -2.1622,0.73958 -2.31083,1.68029 -0.14862,0.94071 1.82891,1.37011 1.68028,2.31083 -6.1622,4.48075 0.21019,-1.33038 -0.63054,3.99111 -0.29725,1.88142 -4.32441,1.47913 -4.62165,3.36055 -0.14863,0.94072 1.8289,1.37012 1.68028,2.31083 -0.0254,0.16061 -8.3947,6.10406 -9.24332,6.72112 -0.77028,0.5601 -1.54055,1.12019 -2.31083,1.68028 -0.77027,0.5601 -1.37011,1.82891 -2.31082,1.68028 -0.94072,-0.14861 -0.73957,-2.1622 -1.68028,-2.31082 -1.88143,-0.29725 -2.74023,3.6578 -4.62166,3.36056 -0.94071,-0.14863 -0.74084,-2.46732 -1.68028,-2.31082 -1.87887,0.31296 -2.71846,3.28304 -4.62165,3.36055 -6.61099,4.58779 -4.37687,-4.78221 -7.35167,-5.2522 -0.94071,-0.14862 -1.37011,1.8289 -2.31083,1.68028 -1.88142,-0.29724 -1.66968,-3.74471 -3.36056,-4.62166 -1.19564,-0.62009 -2.89518,0.15241 -3.9911,-0.63054 -0.0108,-0.008 -5.03681,-6.93204 -5.04085,-6.93249 -0.94072,-0.14862 -1.37011,1.82891 -2.31082,1.68028 -1.88143,-0.29724 -1.66968,-3.7447 -3.36056,-4.62166 -1.19563,-0.62009 -2.89519,0.15241 -3.99112,-0.63054 -1.54986,-1.10725 -1.66967,-3.7447 -3.36055,-4.62165 -2.66074,-0.42037 -5.32148,-0.84073 -7.98222,-1.2611 -0.56009,-0.77027 -0.83483,-1.87235 -1.68028,-2.31083 -1.19563,-0.62009 -2.89519,0.15241 -3.99111,-0.63054 -3.09973,-2.21452 -3.33935,-7.48942 -6.72112,-9.24331 -0.84544,-0.43848 -1.37011,1.8289 -2.31083,1.68028 -1.88142,-0.29724 -1.66967,-3.74471 -3.36056,-4.62165 -1.19563,-0.6201 -2.79547,-0.0105 -3.9911,-0.63055 -0.863,-0.44758 -4.28412,-5.89179 -5.04084,-6.93248 -0.5601,-0.77028 -1.82891,-1.37012 -1.68028,-2.31083 0.14861,-0.94071 2.1622,-0.73957 2.31082,-1.68028 0.14863,-0.94072 -1.8289,-1.37012 -1.68028,-2.31083 0.14863,-0.94071 2.16221,-0.73957 2.31083,-1.68028 0.14862,-0.94071 -1.8289,-1.37011 -1.68028,-2.31082 0.14862,-0.94072 2.1622,-0.73957 2.31083,-1.68029 0.14862,-0.94071 -2.45056,-1.75073 -1.68028,-2.31083 0.77027,-0.56009 1.12019,1.54056 1.68028,2.31083 1.12019,1.54055 2.24037,3.0811 3.36056,4.62166 0.87865,1.20837 6.58311,8.41479 6.72112,9.24331 0.2213,1.32856 -0.85185,2.66254 -0.63055,3.99111 0.31297,1.87887 3.04759,2.74278 3.36056,4.62165 1.29716,7.78731 -2.89082,0.88263 1.04973,6.30194 4.48075,6.1622 0.21019,-1.33037 -0.63054,3.9911 -0.29724,1.88143 3.6578,2.74023 3.36056,4.62166 -0.14863,0.94071 -2.16221,0.73957 -2.31083,1.68028 -0.14862,0.94071 1.8289,1.37011 1.68029,2.31082 -0.14863,0.94072 -2.16221,0.73957 -2.31084,1.68029 -0.14861,0.94071 1.82891,1.37011 1.68028,2.31082 -0.14861,0.94072 -2.1622,0.73957 -2.31082,1.68028 -1.32415,8.38133 4.68471,-3.75967 3.36056,4.62166 -0.14862,0.94071 -2.16221,0.73956 -2.31083,1.68028 -0.14862,0.94071 1.8289,1.37012 1.68028,2.31082 -0.14862,0.94072 -2.1622,0.73958 -2.31083,1.68029 -0.14862,0.94071 1.82891,1.37011 1.68028,2.31082 -0.14862,0.94072 -2.1622,0.73957 -2.31083,1.68028 -0.14861,0.94072 1.82891,1.37011 1.68029,2.31083 -0.29725,1.88143 -4.32441,1.47914 -4.62165,3.36056 -0.14863,0.94071 1.82889,1.37011 1.68028,2.31083 -0.29725,1.88142 -4.32442,1.47913 -4.62166,3.36056 -0.14862,0.94071 1.8289,1.37011 1.68028,2.31083 -0.29725,1.88142 -4.32442,1.47913 -4.62166,3.36056 -0.14862,0.94071 1.8289,1.37011 1.68028,2.31083 -0.29724,1.88143 -4.32441,1.47913 -4.62165,3.36056 -0.14863,0.94071 1.82889,1.37011 1.68028,2.31082 -0.29724,1.88143 -4.32442,1.47914 -4.62166,3.36057 -0.14862,0.9407 1.82891,1.37011 1.68028,2.31082 -0.14861,0.94072 -1.87235,0.83484 -2.31082,1.68028 -6.12065,11.80148 2.35436,-1.95581 1.04973,6.30194 -0.14862,0.94071 -2.16221,0.73956 -2.31083,1.68028 -0.0631,0.39911 4.64173,6.86942 5.04084,6.93249 0.94072,0.14861 1.37012,-1.82891 2.31084,-1.68029 0.9407,0.14862 0.73955,2.1622 1.68027,2.31083 0.94071,0.14862 1.37012,-1.82891 2.31083,-1.68028 0.94071,0.14861 0.73957,2.1622 1.68028,2.31082 0.94072,0.14863 1.37012,-1.8289 2.31082,-1.68028 0.94072,0.14863 0.73958,2.16221 1.68028,2.31083 0.94072,0.14862 1.37012,-1.8289 2.31083,-1.68029 0.94072,0.14863 0.73957,2.16222 1.68029,2.31084 0.94071,0.14862 1.3701,-1.8289 2.31082,-1.68028 0.94071,0.14862 0.73956,2.1622 1.68028,2.31082 0.94072,0.14863 1.37012,-1.8289 2.31083,-1.68027 0.94072,0.14862 0.73957,2.1622 1.68028,2.31082 1.88142,0.29724 2.74023,-3.6578 4.62166,-3.36056 0.94071,0.14863 0.73956,2.16221 1.68028,2.31083 0.94071,0.14862 1.37011,-1.82891 2.31082,-1.68028 0.94072,0.14862 0.73957,2.1622 1.68028,2.31083 0.94072,0.14861 1.46539,-2.11876 2.31083,-1.68028 1.69088,0.87694 1.47913,4.32441 3.36056,4.62165 1.88142,0.29724 2.74278,-3.04759 4.62165,-3.36056 0.93944,-0.15648 0.73957,2.16221 1.68029,2.31083 0.9407,0.14862 1.37139,-1.5238 2.31082,-1.68028 1.32857,-0.2213 2.66255,0.85184 3.99111,0.63055 0.93944,-0.15649 1.37011,-1.82891 2.31083,-1.68029 0.94071,0.14863 0.73957,2.16221 1.68028,2.31083 1.88143,0.29724 2.74022,-3.6578 4.62165,-3.36056 10.64296,1.68146 -6.1622,4.48074 0,0 0.77027,-0.56009 2.45056,1.75074 1.68028,2.31083 -3.83202,2.78639 -3.97668,-2.06245 -5.67138,-2.94138 -1.19564,-0.62009 -2.79548,-0.0104 -3.99111,-0.63054 -0.84544,-0.43848 -0.73957,-2.16221 -1.68028,-2.31084 -0.94072,-0.14861 -1.37012,1.82891 -2.31084,1.68029 -0.9407,-0.14862 -0.73955,-2.1622 -1.68027,-2.31083 -1.88143,-0.29724 -2.74023,3.6578 -4.62165,3.36056 -0.94072,-0.14861 -0.73958,-2.1622 -1.68028,-2.31082 -0.12838,-0.0203 -6.37205,4.63333 -6.93249,5.04084 -0.56043,0.40751 -6.91221,4.91247 -6.93248,5.04084 -0.14862,0.94071 1.82891,1.37011 1.68028,2.31082 -0.14862,0.94072 -2.16221,0.73958 -2.31083,1.68028 -0.29724,1.88143 3.65781,2.74024 3.36057,4.62166 -0.84073,5.32147 -5.1113,-2.1711 -0.63055,3.99111 0.40751,0.56043 5.06113,6.80411 5.04084,6.93248 -0.14863,0.94071 -2.16221,0.73956 -2.31083,1.68028 -0.14862,0.94071 1.12018,1.54055 1.68028,2.31083 1.12018,1.54055 2.24038,3.08111 3.36056,4.62166 2.80047,3.85137 5.60094,7.70275 8.4014,11.55413 0.56009,0.77028 0.73957,2.1622 1.68028,2.31083 0.94072,0.14862 1.37012,-1.8289 2.31083,-1.68029 1.88143,0.29724 1.47914,4.32442 3.36056,4.62166 1.88143,0.29724 2.74023,-3.6578 4.62166,-3.36056 0.94072,0.14862 0.73957,2.16221 1.68027,2.31083 0.12838,0.0203 6.37205,-4.63333 6.93249,-5.04085 0.56043,-0.40751 6.91221,-4.91247 6.93248,-5.04084 0.14862,-0.9407 -1.8289,-1.3701 -1.68028,-2.31082 0.14862,-0.94072 2.16221,-0.73957 2.31083,-1.68028 0.14862,-0.94072 -1.5238,-1.37139 -1.68028,-2.31083 -0.22131,-1.32856 0.85185,-2.66255 0.63054,-3.99111 -0.15648,-0.93943 -1.52379,-1.37139 -1.68028,-2.31082 -0.2213,-1.32857 0.85186,-2.66254 0.63055,-3.99111 -0.28473,-1.70937 -6.89365,-8.15126 -6.72112,-9.24331 0.14862,-0.94072 2.16221,-0.73957 2.31083,-1.68028 0.14862,-0.94072 -1.12019,-1.54055 -1.68028,-2.31083 -0.40752,-0.56044 -4.91248,-6.91221 -5.04084,-6.93248 -0.94071,-0.14863 -1.37012,1.8289 -2.31083,1.68028 -0.94072,-0.14862 -2.45056,-1.75074 -1.68028,-2.31083 0.77027,-0.5601 1.12019,1.54055 1.68028,2.31083 1.68028,2.31083 3.36056,4.62165 5.04084,6.93248 3.92066,5.39193 7.84131,10.78386 11.76196,16.17579 4.48075,6.16221 -1.33037,-0.21018 3.99111,0.63055 1.88143,0.29725 1.47913,4.32441 3.36056,4.62165 0.94072,0.14863 1.37012,-1.8289 2.31082,-1.68028 0.94072,0.14863 0.83485,1.87235 1.68029,2.31084 1.19563,0.62009 2.79547,0.0104 3.99111,0.63054 1.69088,0.87695 1.47913,4.32441 3.36056,4.62165 0.94071,0.14863 1.37011,-1.8289 2.31082,-1.68028 0.94071,0.14863 0.73957,2.16221 1.68029,2.31083 0.9407,0.14862 1.37011,-1.8289 2.31082,-1.68028 2.73677,0.43237 0.62381,4.18928 3.36056,4.62165 0.94072,0.14863 1.54055,-1.12018 2.31082,-1.68027 0.5601,0.77027 0.73958,2.1622 1.68029,2.31083 2.6039,0.41138 2.01775,-3.77195 4.62166,-3.36056 0.94071,0.14861 0.73956,2.16219 1.68028,2.31082 0.12837,0.0203 6.37205,-4.63333 6.93248,-5.04084 4.62165,-3.36056 9.24331,-6.72112 13.86497,-10.08168 0.77027,-0.5601 1.54055,-1.12019 2.31082,-1.68028 0.77028,-0.5601 1.87236,-0.83484 2.31083,-1.68028 2.09126,-13.23684 -1.38658,2.67352 2.94138,-5.67139 0.62009,-1.19563 0.0104,-2.79548 0.63054,-3.99111 0.43848,-0.84544 2.16221,-0.73957 2.31082,-1.68028 0.14863,-0.94071 -1.82889,-1.37011 -1.68028,-2.31083 0.14863,-0.94072 2.16221,-0.73956 2.31084,-1.68028 0.84073,-5.32147 -5.53167,0.48964 0.63054,-3.9911 5.41931,-3.94056 -0.69329,1.33675 2.94137,-5.67139 0.87696,-1.69089 4.32441,-1.47914 4.62166,-3.36057 0.14863,-0.94071 -0.73956,-2.1622 -1.68028,-2.31082 -0.94071,-0.14862 -1.54055,1.12018 -2.31083,1.68028 -0.77027,0.56009 -1.54055,1.12018 -2.31083,1.68028 -8.47303,6.16103 -16.94607,12.32206 -25.4191,18.48308 -12.32441,8.96149 -24.64883,17.92299 -36.97323,26.88448 -0.77028,0.5601 -1.54055,1.12019 -2.31084,1.68029 -0.77027,0.56009 -2.16219,0.73957 -2.31082,1.68028 -0.14862,0.94071 1.8289,1.37011 1.68028,2.31082 -0.29725,1.88143 -4.32441,1.47913 -4.62165,3.36056 -0.14863,0.94072 2.11875,1.46539 1.68028,2.31083 -1.7539,3.38177 -7.48941,3.33936 -9.24332,6.72113 -0.43847,0.84543 1.8289,1.3701 1.68028,2.31082 -0.42373,2.68203 -4.19792,0.67854 -4.62165,3.36056 -0.14862,0.94072 1.8289,1.37012 1.68028,2.31083 -0.14862,0.94072 -2.1622,0.73957 -2.31082,1.68028 -0.14863,0.94072 1.82889,1.37011 1.68028,2.31083 -0.14863,0.94071 -2.16221,0.73956 -2.31083,1.68028 -0.14862,0.94071 1.8289,1.37011 1.68028,2.31083 -0.14862,0.9407 -2.16221,0.73956 -2.31083,1.68028 -0.14862,0.9407 1.82891,1.37011 1.68028,2.31082 -0.14862,0.94072 -2.16221,0.73958 -2.31083,1.68028 -0.14862,0.94072 1.8289,1.37012 1.68028,2.31083 -0.14862,0.94072 -2.1622,0.73957 -2.31083,1.68028 -0.29724,1.88143 3.65781,2.74023 3.36056,4.62166 -0.14861,0.94071 -2.1622,0.73956 -2.31082,1.68028 -0.14862,0.94071 1.5238,1.37139 1.68028,2.31082 0.2213,1.32857 -0.85185,2.66255 -0.63054,3.99111 0.15648,0.93944 1.12018,1.54055 1.68027,2.31083 0.5601,0.77027 1.12019,1.54055 1.68028,2.31082 1.12019,1.54055 3.04759,2.74279 3.36057,4.62166 0.15648,0.93944 -2.16221,0.73957 -2.31083,1.68028 -0.14863,0.94071 1.12019,1.54055 1.68028,2.31083 1.16027,1.59567 5.85897,8.79617 6.72112,9.24331 11.80148,6.12065 -1.95581,-2.35436 6.30193,-1.04974 0.94072,0.14863 0.73957,2.16221 1.68028,2.31084 1.88143,0.29724 2.74024,-3.65781 4.62166,-3.36057 0.94071,0.14862 0.73956,2.16221 1.68028,2.31083 1.88143,0.29724 2.74022,-3.6578 4.62165,-3.36056 0.94072,0.14862 0.73957,2.16221 1.68028,2.31083 1.99555,0.31527 4.93693,-5.35612 6.93248,-5.04085 0.94072,0.14863 0.73958,2.16221 1.68029,2.31084 1.99555,0.31527 4.93692,-5.35613 6.93248,-5.04084 0.94071,0.14861 0.73957,2.16219 1.68028,2.31082 0.96039,0.15173 8.28292,-6.87285 9.24331,-6.72112 0.94071,0.14861 0.73957,2.16221 1.68028,2.31083 0.94072,0.14862 1.54055,-1.12019 2.31082,-1.68028 3.85138,-2.80047 7.70276,-5.60094 11.55414,-8.40141 0.84863,-0.61706 9.21794,-6.56051 9.24331,-6.72112 0.41542,-2.62943 -3.77597,-1.99222 -3.36056,-4.62165 0.14863,-0.94072 2.16221,-0.73957 2.31083,-1.68028 0.14862,-0.94072 -1.8289,-1.37012 -1.68028,-2.31083 0.14862,-0.94071 2.16221,-0.73957 2.31083,-1.68029 0.14862,-0.9407 -1.52379,-1.37138 -1.68028,-2.31082 -0.22131,-1.32856 0.85184,-2.66254 0.63055,-3.9911 -0.15649,-0.93945 -1.12019,-1.54055 -1.68029,-2.31084 0.21018,-1.33037 0.85185,-2.66253 0.63055,-3.9911 -0.31297,-1.87888 -3.6578,-2.74023 -3.36056,-4.62165 0.14862,-0.94072 2.16221,-0.73957 2.31083,-1.68028 0.0286,-0.1809 -7.60916,-10.46459 -8.40141,-11.55414 -0.56009,-0.77028 -1.8289,-1.37012 -1.68028,-2.31083 0.14862,-0.94072 2.46732,-0.74085 2.31084,-1.68028 -0.31298,-1.87887 -2.24038,-3.08111 -3.36057,-4.62166 -1.12018,-1.54055 -2.24037,-3.0811 -3.36055,-4.62165 -6.16103,-8.47303 -12.32206,-16.94607 -18.48309,-25.4191 -5.04084,-6.93248 -10.08168,-13.86497 -15.12252,-20.79745 -0.5601,-0.77028 -1.12019,-1.54055 -1.68028,-2.31083 -0.56009,-0.77027 -0.73957,-2.1622 -1.68029,-2.31083 -0.94071,-0.14861 -1.37011,1.82891 -2.31083,1.68029 -0.81592,-0.12891 -3.91651,-6.34937 -5.04084,-6.93248 -1.19562,-0.6201 -2.66074,-0.42037 -3.99111,-0.63055"
       id="path2997"
       inkscape:connector-curvature="0" />
  </g>
</svg>
